<svg width="18" height="18" viewBox="0 0 18 18" fill="none" xmlns="http://www.w3.org/2000/svg">
<path d="M15.5 5.76197V9H2.5V2C2.5 1.17157 3.17157 0.5 4 0.5H10.3425C10.7477 0.5 11.1356 0.663892 11.418 0.954383L15.0755 4.71636C15.3477 4.99635 15.5 5.37147 15.5 5.76197Z" stroke="#448DE5" stroke-linecap="round" stroke-linejoin="round"/>
<path d="M15 5H12C11.4477 5 11 4.55228 11 4V1" stroke="#448DE5"/>
<path d="M15.9817 14H17.2252C17.6557 14 18 13.6643 18 13.2571C18 13.2571 18 10.6582 18 8.9995C18 8.44706 17.552 8.00018 16.9996 8.0004L0.999604 8.00675C0.447474 8.00697 0 8.45446 0 9.00659C0 11.0538 0 13.2571 0 13.2571C0 13.6643 0.352174 14 0.774783 14H1.96567" fill="#448DE5"/>
<path d="M2.5 12.5H15.5V16C15.5 16.8284 14.8284 17.5 14 17.5H4C3.17157 17.5 2.5 16.8284 2.5 16V12.5Z" fill="white" stroke="#448DE5"/>
</svg>
