<svg width="54" height="54" viewBox="0 0 54 54" fill="none" xmlns="http://www.w3.org/2000/svg">
<circle cx="27" cy="27" r="27" fill="white"/>
<path d="M18.3333 38H16C15.4477 38 15 37.5523 15 37V16H20.6227C20.8658 16 21.1007 16.0886 21.2833 16.2493L24.3333 18.9333H39V37C39 37.5523 38.5523 38 38 38H35" stroke="#448DE5" stroke-width="1.3"/>
<path d="M21.0397 37.8136C21.4486 34.508 24.005 32.0484 27 32.0484C29.9951 32.0484 32.5515 34.508 32.9604 37.8136C32.9685 37.8794 32.9485 37.9375 32.9002 37.9876C32.8486 38.0413 32.766 38.0818 32.6667 38.0818H21.3334C21.2341 38.0818 21.1515 38.0413 21.0998 37.9876C21.0516 37.9375 21.0315 37.8794 21.0397 37.8136Z" stroke="#448DE5" stroke-width="1.3"/>
<path d="M29.6833 25.5339C29.6833 27.2596 28.425 28.5505 27 28.5505C25.5749 28.5505 24.3166 27.2596 24.3166 25.5339C24.3166 23.8081 25.5749 22.5172 27 22.5172C28.425 22.5172 29.6833 23.8081 29.6833 25.5339Z" stroke="#448DE5" stroke-width="1.3"/>
</svg>
