<svg width="75" height="75" viewBox="0 0 75 75" fill="none" xmlns="http://www.w3.org/2000/svg">
<path d="M30 17.1094C31.2881 18.4091 32.8322 19.4429 34.54 20.1489C36.2477 20.8549 38.0841 21.2187 39.9395 21.2185C41.8204 21.2198 43.6817 20.8472 45.4093 20.1235" stroke="#1655A2" stroke-width="1.7" stroke-linecap="round" stroke-linejoin="round"/>
<path d="M37.2183 29.4366C41.7571 29.4366 45.4366 25.7571 45.4366 21.2183C45.4366 16.6795 41.7571 13 37.2183 13C32.6795 13 29 16.6795 29 21.2183C29 25.7571 32.6795 29.4366 37.2183 29.4366Z" stroke="#1655A2" stroke-width="2.25" stroke-linecap="round" stroke-linejoin="round"/>
<path d="M67.6372 61.0001V49.9182C67.6372 48.8284 67.1377 47.7832 66.2485 47.0126C65.3594 46.242 64.1534 45.8091 62.8959 45.8091H10.7413C9.48385 45.8091 8.27787 46.242 7.3887 47.0126C6.49953 47.7832 6 48.8284 6 49.9182V61.0001" stroke="#1655A2" stroke-width="2.25" stroke-linecap="round" stroke-linejoin="round"/>
<line x1="7.1" y1="51.9" x2="66.9" y2="51.9" stroke="#1655A2" stroke-width="2.2" stroke-linecap="round"/>
<path d="M20.3213 44.9314V42.8498C20.3181 42.2763 20.4225 41.7096 20.6265 41.1941C20.8304 40.6785 21.1284 40.2281 21.497 39.8781C23.5279 37.9678 28.3683 34.5801 37.1176 34.5801C45.867 34.5801 50.6998 37.9678 52.7382 39.8781C53.1069 40.2281 53.4048 40.6785 53.6088 41.1941C53.8128 41.7096 53.9172 42.2763 53.914 42.8498V44.9314" stroke="#1655A2" stroke-width="2.25" stroke-linecap="round" stroke-linejoin="round"/>
<path d="M32.7095 35.6001L37.0238 44.5762C37.1069 44.7492 37.2174 44.8457 37.3323 44.8457C37.4472 44.8457 37.5576 44.7492 37.6408 44.5762L41.9551 35.6001" stroke="#1655A2" stroke-width="1.7" stroke-linecap="round" stroke-linejoin="round"/>
</svg>
