<svg width="75" height="75" viewBox="0 0 75 75" fill="none" xmlns="http://www.w3.org/2000/svg">
<path d="M37 32.7002H48.4" stroke="#1655A2" stroke-width="2" stroke-miterlimit="10" stroke-linecap="round" stroke-linejoin="round"/>
<path d="M37 39.3501H48.4" stroke="#1655A2" stroke-width="2" stroke-miterlimit="10" stroke-linecap="round" stroke-linejoin="round"/>
<path d="M37 46H41.75" stroke="#1655A2" stroke-width="2" stroke-miterlimit="10" stroke-linecap="round" stroke-linejoin="round"/>
<path d="M53.15 16.5498H60.75V64.9998H13.25V16.5498H20.85" stroke="#1655A2" stroke-width="2.25" stroke-miterlimit="10" stroke-linecap="round" stroke-linejoin="round"/>
<path d="M43.6496 14.65C43.6496 10.9773 40.6723 8 36.9996 8C33.3269 8 30.3496 10.9773 30.3496 14.65H25.5996V22.25H48.3996V14.65H43.6496Z" stroke="#1655A2" stroke-width="2" stroke-miterlimit="10" stroke-linecap="round" stroke-linejoin="round"/>
<path d="M36.9996 16.55C38.049 16.55 38.8996 15.6993 38.8996 14.65C38.8996 13.6007 38.049 12.75 36.9996 12.75C35.9503 12.75 35.0996 13.6007 35.0996 14.65C35.0996 15.6993 35.9503 16.55 36.9996 16.55Z" fill="#1655A2"/>
<path d="M55.0492 22.25V59.3H18.9492V22.25" stroke="#1655A2" stroke-width="2.25" stroke-miterlimit="10" stroke-linecap="round" stroke-linejoin="round"/>
<path fill-rule="evenodd" clip-rule="evenodd" d="M27.4022 32.6914C27.7927 33.0819 28.4259 33.0819 28.8164 32.6914L31.168 30.3398C31.3071 30.2007 31.5327 30.2007 31.6718 30.3398C31.811 30.4789 31.811 30.7045 31.6718 30.8436L28.8164 33.699C28.4259 34.0895 27.7927 34.0895 27.4022 33.699L26.3281 32.6249C26.189 32.4857 26.189 32.2602 26.3281 32.121C26.4672 31.9819 26.6928 31.9819 26.8319 32.121L27.4022 32.6914Z" fill="#1655A2" stroke="#1655A2" stroke-linecap="round" stroke-linejoin="round"/>
<path fill-rule="evenodd" clip-rule="evenodd" d="M27.4022 40.291C27.7927 40.6815 28.4259 40.6815 28.8164 40.291L31.168 37.9394C31.3071 37.8003 31.5327 37.8003 31.6718 37.9394C31.811 38.0785 31.811 38.3041 31.6718 38.4432L28.8164 41.2986C28.4259 41.6891 27.7927 41.6891 27.4022 41.2986L26.3281 40.2245C26.189 40.0853 26.189 39.8598 26.3281 39.7207C26.4672 39.5815 26.6928 39.5815 26.8319 39.7207L27.4022 40.291Z" fill="#1655A2" stroke="#1655A2" stroke-linecap="round" stroke-linejoin="round"/>
<path fill-rule="evenodd" clip-rule="evenodd" d="M27.4022 47.8911C27.7927 48.2816 28.4259 48.2816 28.8164 47.8911L31.168 45.5395C31.3071 45.4004 31.5327 45.4004 31.6718 45.5395C31.811 45.6786 31.811 45.9042 31.6718 46.0433L28.8164 48.8987C28.4259 49.2892 27.7927 49.2892 27.4022 48.8987L26.3281 47.8246C26.189 47.6854 26.189 47.4599 26.3281 47.3208C26.4672 47.1816 26.6928 47.1816 26.8319 47.3208L27.4022 47.8911Z" fill="#1655A2" stroke="#1655A2" stroke-linecap="round" stroke-linejoin="round"/>
</svg>
