<svg width="75" height="75" viewBox="0 0 75 75" fill="none" xmlns="http://www.w3.org/2000/svg">
<mask id="path-2-inside-1" fill="white">
<rect x="35.5469" y="47.7427" width="18.1712" height="18.1712" rx="1.5"/>
</mask>
<rect x="35.5469" y="47.7427" width="18.1712" height="18.1712" rx="1.5" stroke="#1655A2" stroke-width="4" mask="url(#path-2-inside-1)"/>
<mask id="path-3-inside-2" fill="white">
<rect x="19.2148" y="47.7427" width="18.1712" height="18.1712" rx="1.5"/>
</mask>
<rect x="19.2148" y="47.7427" width="18.1712" height="18.1712" rx="1.5" stroke="#1655A2" stroke-width="4" mask="url(#path-3-inside-2)"/>
<mask id="path-4-inside-3" fill="white">
<rect x="27.1816" y="31.4106" width="18.1712" height="18.1683" rx="1.5"/>
</mask>
<rect x="27.1816" y="31.4106" width="18.1712" height="18.1683" rx="1.5" stroke="#1655A2" stroke-width="4" mask="url(#path-4-inside-3)"/>
<path d="M63.087 59.7381C62.741 59.7381 62.4093 59.6007 62.1646 59.3561C61.92 59.1115 61.7826 58.7797 61.7826 58.4338V25.8251H12.2174V58.4338C12.2174 58.7797 12.08 59.1115 11.8354 59.3561C11.5907 59.6007 11.259 59.7381 10.913 59.7381C10.5671 59.7381 10.2353 59.6007 9.99073 59.3561C9.74612 59.1115 9.6087 58.7797 9.6087 58.4338V25.8251C8.17131 25.8251 7 24.6538 7 23.2164V20.2816C6.9991 19.7211 7.17802 19.1751 7.51047 18.7239C7.84293 18.2726 8.31138 17.9399 8.84696 17.7747L35.8052 9.18424C36.5775 8.93859 37.4069 8.93859 38.1791 9.18424L65.1974 17.7642C66.28 18.1242 67 19.1208 67 20.2477V23.2164C67 24.6538 65.8313 25.8251 64.3913 25.8251V58.4338C64.3913 58.7797 64.2539 59.1115 64.0093 59.3561C63.7647 59.6007 63.4329 59.7381 63.087 59.7381ZM36.9922 11.6077C36.8584 11.6077 36.7255 11.6288 36.5983 11.6703L9.62435 20.266L9.6087 23.2164H64.3913V20.2451L37.3887 11.6703C37.2606 11.629 37.1268 11.6079 36.9922 11.6077Z" fill="#1655A2"/>
<line x1="31.75" y1="36.25" x2="40.25" y2="36.25" stroke="#1655A2" stroke-width="1.5" stroke-linecap="round" stroke-linejoin="round"/>
<line x1="23.75" y1="53.25" x2="32.25" y2="53.25" stroke="#1655A2" stroke-width="1.5" stroke-linecap="round" stroke-linejoin="round"/>
<line x1="40.75" y1="53.25" x2="49.25" y2="53.25" stroke="#1655A2" stroke-width="1.5" stroke-linecap="round" stroke-linejoin="round"/>
</svg>
