<svg width="54" height="52" viewBox="0 0 54 52" fill="none" xmlns="http://www.w3.org/2000/svg">
<path d="M2 34.3333H34.3333H40C40.5523 34.3333 41 33.8856 41 33.3333V5.44444H16.5556L11.2739 1.21913C11.0966 1.07728 10.8763 1 10.6492 1H1V33.3333C1 33.8856 1.44771 34.3333 2 34.3333Z" fill="white" stroke="#1655A2" stroke-width="1.75"/>
<path d="M8 42.3333H40.3333H46C46.5523 42.3333 47 41.8856 47 41.3333V13.4444H22.5556L17.2739 9.21913C17.0966 9.07728 16.8763 9 16.6492 9H7V41.3333C7 41.8856 7.44771 42.3333 8 42.3333Z" fill="white" stroke="#1655A2" stroke-width="1.75"/>
<path d="M14 50.3333H18.5556H52C52.5523 50.3333 53 49.8856 53 49.3333V21.4444H28.5556L23.2739 17.2191C23.0966 17.0773 22.8763 17 22.6492 17H13V49.3333C13 49.8856 13.4477 50.3333 14 50.3333Z" fill="white" stroke="#1655A2" stroke-width="1.75"/>
<path d="M38.498 30.5779C38.1315 30.3147 37.6773 30.1211 37.1355 29.9973C36.6096 29.8579 36.0199 29.7883 35.3665 29.7883C34.3307 29.7883 33.4303 30.0979 32.6653 30.7172C31.9163 31.321 31.3665 32.25 31.0159 33.5041H37.6135L37.2072 35.0601H30.7291C30.6972 35.3233 30.6733 35.5943 30.6574 35.873C30.6414 36.1516 30.6335 36.4458 30.6335 36.7555C30.6335 36.9567 30.6335 37.1503 30.6335 37.3361C30.6335 37.5219 30.6414 37.6999 30.6574 37.8702H36.4422L36.0359 39.3798H30.8008C31.008 40.6803 31.4223 41.6557 32.0438 42.306C32.6813 42.9563 33.5976 43.2814 34.7928 43.2814C35.4622 43.2814 36.0359 43.1576 36.5139 42.9098C37.008 42.6466 37.4303 42.3138 37.7809 41.9112L38.9522 43.0492C38.5378 43.5911 37.9562 44.0556 37.2072 44.4426C36.4582 44.8142 35.6215 45 34.6972 45C32.992 45 31.6454 44.5278 30.6574 43.5833C29.6693 42.6234 29.0239 41.2222 28.7211 39.3798H27L27.4542 37.8702H28.5538C28.5378 37.6844 28.5299 37.4986 28.5299 37.3128C28.5299 37.1116 28.5299 36.9026 28.5299 36.6858C28.5299 36.1129 28.5538 35.571 28.6016 35.0601H27.0239L27.5259 33.5041H28.8884C29.1116 32.5751 29.4303 31.77 29.8446 31.0888C30.259 30.3921 30.753 29.8192 31.3267 29.3702C31.9004 28.9057 32.5299 28.5651 33.2151 28.3484C33.9163 28.1161 34.6653 28 35.4622 28C36.1315 28 36.7849 28.0774 37.4223 28.2322C38.0598 28.3871 38.5857 28.5883 39 28.8361L38.498 30.5779Z" fill="#1655A2"/>
</svg>
