<svg width="68" height="75" viewBox="0 0 68 75" fill="none" xmlns="http://www.w3.org/2000/svg">
<path d="M31.75 56.3306L15.8833 49.1055V66.3509L31.75 73.5761V56.3306Z" fill="white" stroke="#1655A2" stroke-width="1.5" stroke-linejoin="round"/>
<path d="M60.7617 41.3359L31.7484 56.2962V73.5416L60.7617 58.5814V41.3359Z" fill="white" stroke="#1655A2" stroke-width="1.5" stroke-linejoin="round"/>
<path d="M60.7617 41.3306L44.8951 34.1055L15.8817 49.0496L31.7484 56.2747L60.7617 41.3306Z" fill="white" stroke="#1655A2" stroke-width="1.5" stroke-linejoin="round"/>
<path d="M31.9102 33.3853L16.0435 26.1602V43.4056L31.9102 50.6308V33.3853Z" fill="white" stroke="#1655A2" stroke-width="1.5" stroke-linejoin="round"/>
<path d="M60.9219 18.3906L31.9085 33.3509V50.5963L60.9219 35.6361V18.3906Z" fill="white" stroke="#1655A2" stroke-width="1.5" stroke-linejoin="round"/>
<mask id="mask0" mask-type="alpha" maskUnits="userSpaceOnUse" x="29" y="22" width="30" height="28">
<path d="M58.9219 22.1094L29.9085 37.0697V49.3342L58.9219 34.3739V22.1094Z" fill="#C4C4C4"/>
</mask>
<g mask="url(#mask0)">
<line x1="0.5" y1="-0.5" x2="41.5" y2="-0.5" transform="matrix(-2.4978e-08 1 1 7.64952e-08 36.5 15)" stroke="#1655A2" stroke-linecap="round" stroke-linejoin="round"/>
<line x1="0.5" y1="-0.5" x2="41.5" y2="-0.5" transform="matrix(-2.4978e-08 1 1 7.64952e-08 39.5 15)" stroke="#1655A2" stroke-linecap="round" stroke-linejoin="round"/>
<line x1="0.5" y1="-0.5" x2="41.5" y2="-0.5" transform="matrix(-2.4978e-08 1 1 7.64952e-08 42.5 15)" stroke="#1655A2" stroke-linecap="round" stroke-linejoin="round"/>
<line x1="0.5" y1="-0.5" x2="41.5" y2="-0.5" transform="matrix(-2.4978e-08 1 1 7.64952e-08 45.5 15)" stroke="#1655A2" stroke-linecap="round" stroke-linejoin="round"/>
<line x1="0.5" y1="-0.5" x2="41.5" y2="-0.5" transform="matrix(-2.4978e-08 1 1 7.64952e-08 48.5 15)" stroke="#1655A2" stroke-linecap="round" stroke-linejoin="round"/>
<line x1="0.5" y1="-0.5" x2="41.5" y2="-0.5" transform="matrix(-2.4978e-08 1 1 7.64952e-08 51.5 15)" stroke="#1655A2" stroke-linecap="round" stroke-linejoin="round"/>
<line x1="0.5" y1="-0.5" x2="41.5" y2="-0.5" transform="matrix(-2.4978e-08 1 1 7.64952e-08 54.5 15)" stroke="#1655A2" stroke-linecap="round" stroke-linejoin="round"/>
<line x1="0.5" y1="-0.5" x2="41.5" y2="-0.5" transform="matrix(-2.4978e-08 1 1 7.64952e-08 57.5 15)" stroke="#1655A2" stroke-linecap="round" stroke-linejoin="round"/>
</g>
<path d="M60.9219 18.3853L45.0552 11.1602L16.0419 26.1043L31.9085 33.3294L60.9219 18.3853Z" fill="white" stroke="#1655A2" stroke-width="1.5" stroke-linejoin="round"/>
<line x1="39.4815" y1="0.865185" x2="46.4815" y2="25.8652" stroke="#1655A2"/>
<line x1="39.4266" y1="1.26073" x2="28.4266" y2="19.2607" stroke="#1655A2"/>
</svg>
