<svg width="20" height="17" viewBox="0 0 20 17" fill="none" xmlns="http://www.w3.org/2000/svg">
<path d="M3.5 16H2C1.44772 16 1 15.5523 1 15V1H5.14922C5.37629 1 5.5966 1.07728 5.77391 1.21913L8 3H19V15C19 15.5523 18.5523 16 18 16H16" stroke="#448DE5"/>
<path d="M5.58886 15.6052C6.00354 13.5485 7.82149 12 10 12C12.1785 12 13.9965 13.5485 14.4111 15.6052C14.431 15.7035 14.4032 15.7905 14.3344 15.8637C14.2609 15.9419 14.1411 16 14 16H6C5.85892 16 5.73906 15.9419 5.66559 15.8637C5.59679 15.7905 5.56905 15.7035 5.58886 15.6052Z" stroke="#448DE5"/>
<circle cx="10" cy="7.5" r="2" stroke="#448DE5"/>
</svg>
