<svg width="32" height="30" viewBox="0 0 32 30" fill="none" xmlns="http://www.w3.org/2000/svg">
<path d="M24.0372 13.4624V14.3113H22.8527V13.4535C22.095 13.2913 21.4461 12.8046 21.3994 11.9402H22.2683C22.3127 12.4069 22.6327 12.7691 23.4461 12.7691C24.3194 12.7691 24.5127 12.3335 24.5127 12.0624C24.5127 11.6958 24.315 11.3469 23.3283 11.1113C22.2261 10.8469 21.4705 10.3913 21.4705 9.4802C21.4705 8.71797 22.0861 8.2202 22.8527 8.05353V7.2002H24.0372V8.06464C24.8639 8.26686 25.2772 8.89131 25.3061 9.56908H24.4305C24.4061 9.07575 24.1461 8.7402 23.4439 8.7402C22.7772 8.7402 22.3772 9.0402 22.3772 9.47131C22.3772 9.84686 22.6661 10.0869 23.5616 10.3202C24.4594 10.5535 25.4194 10.9358 25.4194 12.058C25.4194 12.8691 24.8061 13.3158 24.0372 13.4624Z" fill="white"/>
<path fill-rule="evenodd" clip-rule="evenodd" d="M23.1906 11.0768C23.2359 11.0886 23.2818 11.1001 23.3283 11.1113C23.3369 11.1134 23.3454 11.1154 23.3539 11.1175C23.3541 11.1175 23.3537 11.1174 23.3539 11.1175C24.3141 11.352 24.5112 11.6962 24.5127 12.058C24.5127 12.0595 24.5127 12.0609 24.5127 12.0624C24.5127 12.2788 24.3896 12.6 23.8957 12.7208C23.8817 12.7242 23.8674 12.7275 23.8527 12.7306C23.7371 12.7551 23.6025 12.7691 23.4461 12.7691C23.2927 12.7691 23.1569 12.7562 23.0372 12.7322C23.0275 12.7302 23.0179 12.7282 23.0085 12.7261C22.5138 12.6171 22.3037 12.3118 22.2683 11.9402H21.3994C21.4009 11.968 21.403 11.9953 21.4058 12.0223C21.4443 12.4044 21.6041 12.7086 21.8388 12.9402C22.1036 13.2016 22.4638 13.3703 22.8527 13.4535V14.3113H24.0372V13.4624C24.8047 13.316 25.4172 12.8707 25.4194 12.0624C25.4194 12.0609 25.4194 12.0595 25.4194 12.058C25.4194 11.255 24.9279 10.8309 24.3194 10.5691C24.0775 10.465 23.817 10.3866 23.5616 10.3202C23.5478 10.3166 23.5342 10.313 23.5207 10.3094C23.5204 10.3093 23.521 10.3095 23.5207 10.3094C23.5022 10.3045 23.4832 10.2993 23.4652 10.2944C22.652 10.0709 22.3816 9.83692 22.3772 9.4802C22.3772 9.47724 22.3772 9.47428 22.3772 9.47131C22.3772 9.14341 22.6086 8.89135 23.0127 8.78946C23.0208 8.78742 23.029 8.78544 23.0372 8.78353C23.1583 8.75527 23.2944 8.7402 23.4439 8.7402C23.6017 8.7402 23.7372 8.75715 23.8527 8.78905C23.855 8.78968 23.8573 8.79031 23.8595 8.79094C24.2422 8.89929 24.4029 9.1734 24.4287 9.53831C24.4294 9.5485 24.43 9.55876 24.4305 9.56908H25.3061C25.3055 9.55464 25.3047 9.54021 25.3037 9.52582C25.28 9.17256 25.151 8.83606 24.9124 8.56908C24.7047 8.33655 24.4138 8.15677 24.0372 8.06464V7.2002H22.8527V8.05353C22.0891 8.21955 21.4753 8.7141 21.4706 9.47131C21.4705 9.47427 21.4705 9.47723 21.4705 9.4802C21.4705 10.2201 21.9688 10.6595 22.7463 10.9402C22.8858 10.9906 23.0343 11.0358 23.1906 11.0768Z" fill="white"/>
<path fill-rule="evenodd" clip-rule="evenodd" d="M21.3994 17.3669C21.3994 17.0907 21.6233 16.8669 21.8994 16.8669H26.6772C26.9533 16.8669 27.1772 17.0907 27.1772 17.3669C27.1772 17.643 26.9533 17.8669 26.6772 17.8669H21.8994C21.6233 17.8669 21.3994 17.643 21.3994 17.3669Z" fill="white"/>
<path fill-rule="evenodd" clip-rule="evenodd" d="M21.3994 20.0335C21.3994 19.7574 21.6233 19.5335 21.8994 19.5335H30.6772C30.9533 19.5335 31.1772 19.7574 31.1772 20.0335C31.1772 20.3096 30.9533 20.5335 30.6772 20.5335H21.8994C21.6233 20.5335 21.3994 20.3096 21.3994 20.0335Z" fill="white"/>
<path fill-rule="evenodd" clip-rule="evenodd" d="M21.3994 22.7002C21.3994 22.424 21.6233 22.2002 21.8994 22.2002H30.6772C30.9533 22.2002 31.1772 22.424 31.1772 22.7002C31.1772 22.9763 30.9533 23.2002 30.6772 23.2002H21.8994C21.6233 23.2002 21.3994 22.9763 21.3994 22.7002Z" fill="white"/>
<path fill-rule="evenodd" clip-rule="evenodd" d="M0.899414 8.97797C0.899414 7.71961 1.91883 6.7002 3.17719 6.7002H15.6216C16.88 6.7002 17.8994 7.71961 17.8994 8.97797V21.4224C17.8994 22.6808 16.88 23.7002 15.6216 23.7002H3.17719C1.91883 23.7002 0.899414 22.6808 0.899414 21.4224V8.97797ZM3.17719 7.7002C2.47111 7.7002 1.89941 8.27189 1.89941 8.97797V21.4224C1.89941 22.1285 2.47111 22.7002 3.17719 22.7002H15.6216C16.3277 22.7002 16.8994 22.1285 16.8994 21.4224V8.97797C16.8994 8.27189 16.3277 7.7002 15.6216 7.7002H3.17719ZM9.39941 11.078C8.35111 11.078 7.49941 11.9297 7.49941 12.978C7.49941 14.0263 8.35111 14.878 9.39941 14.878C10.4477 14.878 11.2994 14.0263 11.2994 12.978C11.2994 11.9297 10.4477 11.078 9.39941 11.078ZM6.49941 12.978C6.49941 11.3774 7.79883 10.078 9.39941 10.078C11 10.078 12.2994 11.3774 12.2994 12.978C12.2994 14.5786 11 15.878 9.39941 15.878C7.79883 15.878 6.49941 14.5786 6.49941 12.978ZM4.99305 18.9162C4.69417 19.199 4.56608 19.4708 4.56608 19.7335V20.0335H14.2327V19.7335C14.2327 19.4708 14.1047 19.199 13.8058 18.9162C13.5044 18.631 13.0641 18.3705 12.5391 18.1501C11.4873 17.7083 10.2197 17.478 9.39941 17.478C8.57915 17.478 7.3115 17.7083 6.2597 18.1501C5.73477 18.3705 5.29441 18.631 4.99305 18.9162ZM5.87246 17.2281C7.04288 16.7365 8.44191 16.478 9.39941 16.478C10.3569 16.478 11.7559 16.7365 12.9264 17.2281C13.5125 17.4743 14.0722 17.7916 14.4931 18.1898C14.9164 18.5903 15.2327 19.1073 15.2327 19.7335V21.0335H3.56608V19.7335C3.56608 19.1073 3.88244 18.5903 4.30577 18.1898C4.72664 17.7916 5.28628 17.4743 5.87246 17.2281Z" fill="white"/>
</svg>
