<svg width="30" height="30" viewBox="0 0 30 30" fill="none" xmlns="http://www.w3.org/2000/svg">
<path d="M12 6.84375C12.5153 7.36365 13.1329 7.77715 13.816 8.05956C14.4991 8.34196 15.2336 8.48747 15.9758 8.48741C16.7281 8.48792 17.4727 8.33888 18.1637 8.04941" stroke="white" stroke-linecap="round" stroke-linejoin="round"/>
<path d="M14.8872 11.7739C16.7027 11.7739 18.1745 10.3021 18.1745 8.48654C18.1745 6.671 16.7027 5.19922 14.8872 5.19922C13.0716 5.19922 11.5999 6.671 11.5999 8.48654C11.5999 10.3021 13.0716 11.7739 14.8872 11.7739Z" stroke="white" stroke-linecap="round" stroke-linejoin="round"/>
<path d="M27.0548 24.4006V19.9679C27.0548 19.532 26.855 19.1139 26.4993 18.8056C26.1437 18.4974 25.6613 18.3242 25.1583 18.3242H4.29643C3.79344 18.3242 3.31105 18.4974 2.95538 18.8056C2.59971 19.1139 2.3999 19.532 2.3999 19.9679V24.4006" stroke="white" stroke-linecap="round" stroke-linejoin="round"/>
<line x1="2.8999" y1="20.6992" x2="26.6999" y2="20.6992" stroke="white" stroke-linecap="round"/>
<path d="M8.12856 17.9726V17.1399C8.12727 16.9105 8.16905 16.6838 8.25064 16.4776C8.33223 16.2714 8.4514 16.0912 8.59886 15.9512C9.41119 15.1871 11.3474 13.832 14.8471 13.832C18.3469 13.832 20.28 15.1871 21.0953 15.9512C21.2428 16.0912 21.362 16.2714 21.4436 16.4776C21.5252 16.6838 21.5669 16.9105 21.5656 17.1399V17.9726" stroke="white" stroke-linecap="round" stroke-linejoin="round"/>
<path d="M13.0835 14.2383L14.8092 17.8287C14.8425 17.8979 14.8867 17.9365 14.9326 17.9365C14.9786 17.9365 15.0228 17.8979 15.056 17.8287L16.7817 14.2383" stroke="white" stroke-linecap="round" stroke-linejoin="round"/>
</svg>
