<svg width="30" height="30" viewBox="0 0 30 30" fill="none" xmlns="http://www.w3.org/2000/svg">
<path d="M5.1998 18.5335H18.1331H20.3998C20.6207 18.5335 20.7998 18.3544 20.7998 18.1335V6.97797H11.022L8.90937 5.28785C8.83844 5.23111 8.75032 5.2002 8.65949 5.2002H4.7998V18.1335C4.7998 18.3544 4.97889 18.5335 5.1998 18.5335Z" fill="#448DE5"/>
<path fill-rule="evenodd" clip-rule="evenodd" d="M4.4502 4.85059H8.65988C8.83019 4.85059 8.99542 4.90855 9.1284 5.01493L11.1452 6.62836H21.1502V18.1339C21.1502 18.5481 20.8144 18.8839 20.4002 18.8839H5.20019C4.78598 18.8839 4.4502 18.5481 4.4502 18.1339V4.85059ZM5.1502 5.55059V18.1339C5.1502 18.1615 5.17258 18.1839 5.20019 18.1839H20.4002C20.4278 18.1839 20.4502 18.1615 20.4502 18.1339V7.32836H10.8996L8.69112 5.56154C8.68225 5.55445 8.67124 5.55059 8.65988 5.55059H5.1502Z" fill="white"/>
<path d="M7.60019 21.7337H20.5335H22.8002C23.0211 21.7337 23.2002 21.5546 23.2002 21.3337V10.1782H13.4224L11.3098 8.48804C11.2388 8.4313 11.1507 8.40039 11.0599 8.40039H7.2002V21.3337C7.2002 21.5546 7.37928 21.7337 7.60019 21.7337Z" fill="#448DE5"/>
<path fill-rule="evenodd" clip-rule="evenodd" d="M6.85059 8.05078H11.0603C11.2306 8.05078 11.3958 8.10874 11.5288 8.21513L13.5456 9.82856H23.5506V21.3341C23.5506 21.7483 23.2148 22.0841 22.8006 22.0841H7.60059C7.18637 22.0841 6.85059 21.7483 6.85059 21.3341V8.05078ZM7.55059 8.75078V21.3341C7.55059 21.3617 7.57297 21.3841 7.60059 21.3841H22.8006C22.8282 21.3841 22.8506 21.3617 22.8506 21.3341V10.5286H13.3L11.0915 8.76174C11.0826 8.75465 11.0716 8.75078 11.0603 8.75078H7.55059Z" fill="white"/>
<path d="M9.99961 24.9329H11.8218H25.1996C25.4205 24.9329 25.5996 24.7539 25.5996 24.5329V13.3774H15.8218L13.7092 11.6873C13.6382 11.6305 13.5501 11.5996 13.4593 11.5996H9.59961V24.5329C9.59961 24.7539 9.7787 24.9329 9.99961 24.9329Z" fill="#448DE5"/>
<path fill-rule="evenodd" clip-rule="evenodd" d="M9.25 11.25H13.4597C13.63 11.25 13.7952 11.308 13.9282 11.4143L15.945 13.0278H25.95V24.5333C25.95 24.9475 25.6142 25.2833 25.2 25.2833H10C9.58579 25.2833 9.25 24.9475 9.25 24.5333V11.25ZM9.95 11.95V24.5333C9.95 24.5609 9.97239 24.5833 10 24.5833H25.2C25.2276 24.5833 25.25 24.5609 25.25 24.5333V13.7278H15.6994L13.4909 11.961C13.4821 11.9539 13.471 11.95 13.4597 11.95H9.95Z" fill="white"/>
<path fill-rule="evenodd" clip-rule="evenodd" d="M15.2734 21.8559H19.9262C19.7191 20.76 18.7561 19.9309 17.5998 19.9309C16.4435 19.9309 15.4805 20.76 15.2734 21.8559ZM14.8007 22.0458C14.9285 20.6122 16.1329 19.4883 17.5998 19.4883C19.0667 19.4883 20.2711 20.6122 20.3989 22.0458C20.4113 22.185 20.2969 22.2986 20.1572 22.2986H15.0424C14.9028 22.2986 14.7883 22.185 14.8007 22.0458Z" fill="#071930"/>
<path fill-rule="evenodd" clip-rule="evenodd" d="M19.9262 21.8559C19.9156 21.7997 19.903 21.7441 19.8884 21.6892C19.8803 21.6588 19.8716 21.6285 19.8624 21.5986C19.8145 21.4436 19.7511 21.2955 19.6741 21.1559C19.2709 20.4257 18.493 19.9309 17.5998 19.9309C16.7066 19.9309 15.9287 20.4257 15.5255 21.1559C15.4485 21.2955 15.3851 21.4436 15.3372 21.5986C15.328 21.6285 15.3193 21.6588 15.3112 21.6892C15.2966 21.7441 15.284 21.7997 15.2734 21.8559H19.9262ZM14.8384 21.7738C14.8216 21.863 14.8089 21.9538 14.8007 22.0458C14.7883 22.185 14.9028 22.2986 15.0424 22.2986H20.1572C20.2969 22.2986 20.4113 22.185 20.3989 22.0458C20.3907 21.9538 20.378 21.863 20.3612 21.7738C20.1154 20.4725 18.9725 19.4883 17.5998 19.4883C16.2271 19.4883 15.0842 20.4725 14.8384 21.7738Z" fill="white"/>
<path fill-rule="evenodd" clip-rule="evenodd" d="M17.5995 18.603C18.1311 18.603 18.562 18.1721 18.562 17.6405C18.562 17.1089 18.1311 16.678 17.5995 16.678C17.0679 16.678 16.637 17.1089 16.637 17.6405C16.637 18.1721 17.0679 18.603 17.5995 18.603ZM17.5995 19.0456C18.3755 19.0456 19.0046 18.4165 19.0046 17.6405C19.0046 16.8645 18.3755 16.2354 17.5995 16.2354C16.8234 16.2354 16.1943 16.8645 16.1943 17.6405C16.1943 18.4165 16.8234 19.0456 17.5995 19.0456Z" fill="#071930"/>
<path fill-rule="evenodd" clip-rule="evenodd" d="M18.562 17.6405C18.562 18.1721 18.1311 18.603 17.5995 18.603C17.0679 18.603 16.637 18.1721 16.637 17.6405C16.637 17.1089 17.0679 16.678 17.5995 16.678C18.1311 16.678 18.562 17.1089 18.562 17.6405ZM19.0046 17.6405C19.0046 18.4165 18.3755 19.0456 17.5995 19.0456C16.8234 19.0456 16.1943 18.4165 16.1943 17.6405C16.1943 16.8645 16.8234 16.2354 17.5995 16.2354C18.3755 16.2354 19.0046 16.8645 19.0046 17.6405Z" fill="white"/>
</svg>
