<svg width="30" height="30" viewBox="0 0 30 30" fill="none" xmlns="http://www.w3.org/2000/svg">
<path d="M12 6.84375C12.5153 7.36365 13.1329 7.77715 13.816 8.05956C14.4991 8.34196 15.2336 8.48747 15.9758 8.48741C16.7281 8.48792 17.4727 8.33888 18.1637 8.04941" stroke="white" stroke-linecap="round" stroke-linejoin="round"/>
<path d="M14.8873 11.7739C16.7028 11.7739 18.1746 10.3021 18.1746 8.48654C18.1746 6.671 16.7028 5.19922 14.8873 5.19922C13.0718 5.19922 11.6 6.671 11.6 8.48654C11.6 10.3021 13.0718 11.7739 14.8873 11.7739Z" stroke="white" stroke-linecap="round" stroke-linejoin="round"/>
<path d="M27.0549 24.4006V19.9679C27.0549 19.532 26.8551 19.1139 26.4994 18.8056C26.1438 18.4974 25.6614 18.3242 25.1584 18.3242H4.29656C3.79356 18.3242 3.31117 18.4974 2.95551 18.8056C2.59984 19.1139 2.40002 19.532 2.40002 19.9679V24.4006" stroke="white" stroke-linecap="round" stroke-linejoin="round"/>
<line x1="2.90002" y1="20.6992" x2="26.7" y2="20.6992" stroke="white" stroke-linecap="round"/>
<path d="M8.1288 17.9726V17.1399C8.12751 16.9105 8.1693 16.6838 8.25088 16.4776C8.33247 16.2714 8.45165 16.0912 8.5991 15.9512C9.41143 15.1871 11.3476 13.832 14.8473 13.832C18.3471 13.832 20.2802 15.1871 21.0956 15.9512C21.243 16.0912 21.3622 16.2714 21.4438 16.4776C21.5254 16.6838 21.5672 16.9105 21.5659 17.1399V17.9726" stroke="white" stroke-linecap="round" stroke-linejoin="round"/>
<path d="M13.0839 14.2383L14.8096 17.8287C14.8429 17.8979 14.887 17.9365 14.933 17.9365C14.9789 17.9365 15.0231 17.8979 15.0564 17.8287L16.7821 14.2383" stroke="white" stroke-linecap="round" stroke-linejoin="round"/>
</svg>
