<svg width="30" height="30" viewBox="0 0 30 30" fill="none" xmlns="http://www.w3.org/2000/svg">
<rect x="14.719" y="19.5977" width="6.26847" height="6.26847" rx="1" stroke="white"/>
<rect x="8.18604" y="19.5977" width="6.26847" height="6.26847" rx="1" stroke="white"/>
<rect x="11.3728" y="13.0664" width="6.26847" height="6.26733" rx="1" stroke="white"/>
<path d="M25.2348 23.8968C25.0965 23.8968 24.9638 23.8419 24.8659 23.744C24.7681 23.6462 24.7131 23.5135 24.7131 23.3751V10.3316H4.88701V23.3751C4.88701 23.5135 4.83204 23.6462 4.73419 23.744C4.63635 23.8419 4.50364 23.8968 4.36527 23.8968C4.22689 23.8968 4.09419 23.8419 3.99634 23.744C3.8985 23.6462 3.84353 23.5135 3.84353 23.3751V10.3316C3.26857 10.3316 2.80005 9.86308 2.80005 9.28813V8.11421C2.79969 7.89001 2.87126 7.67161 3.00424 7.49111C3.13722 7.31061 3.3246 7.17753 3.53883 7.11143L14.3221 3.67526C14.631 3.577 14.9628 3.577 15.2717 3.67526L26.079 7.10726C26.512 7.25126 26.8 7.64987 26.8 8.10065V9.28813C26.8 9.86308 26.3326 10.3316 25.7566 10.3316V23.3751C25.7566 23.5135 25.7016 23.6462 25.6038 23.744C25.5059 23.8419 25.3732 23.8968 25.2348 23.8968ZM14.7969 4.64465C14.7434 4.64465 14.6902 4.6531 14.6394 4.66969L3.84979 8.10795L3.84353 9.28813H25.7566V8.0996L14.9555 4.66969C14.9043 4.65318 14.8508 4.64473 14.7969 4.64465Z" fill="white"/>
<line x1="12.9" y1="14.3008" x2="15.9" y2="14.3008" stroke="white" stroke-linecap="round" stroke-linejoin="round"/>
<line x1="9.70007" y1="21.1016" x2="12.7001" y2="21.1016" stroke="white" stroke-linecap="round" stroke-linejoin="round"/>
<line x1="16.5" y1="21.1016" x2="19.5" y2="21.1016" stroke="white" stroke-linecap="round" stroke-linejoin="round"/>
</svg>
