<svg width="30" height="30" viewBox="0 0 30 30" fill="none" xmlns="http://www.w3.org/2000/svg">
<path d="M14.8 13.0781H19.36" stroke="white" stroke-miterlimit="10" stroke-linecap="round" stroke-linejoin="round"/>
<path d="M14.8 15.7383H19.36" stroke="white" stroke-miterlimit="10" stroke-linecap="round" stroke-linejoin="round"/>
<path d="M14.8 18.3984H16.7" stroke="white" stroke-miterlimit="10" stroke-linecap="round" stroke-linejoin="round"/>
<path d="M21.26 6.62109H24.3V26.0011H5.30005V6.62109H8.34005" stroke="white" stroke-miterlimit="10" stroke-linecap="round" stroke-linejoin="round"/>
<path d="M17.46 5.85922C17.46 4.39014 16.2691 3.19922 14.8 3.19922C13.3309 3.19922 12.14 4.39014 12.14 5.85922H10.24V8.89922H19.36V5.85922H17.46Z" stroke="white" stroke-miterlimit="10" stroke-linecap="round" stroke-linejoin="round"/>
<path d="M14.8 6.61766C15.2198 6.61766 15.56 6.27739 15.56 5.85766C15.56 5.43792 15.2198 5.09766 14.8 5.09766C14.3803 5.09766 14.04 5.43792 14.04 5.85766C14.04 6.27739 14.3803 6.61766 14.8 6.61766Z" fill="white"/>
<path d="M22.0201 8.89844V23.7184H7.58008V8.89844" stroke="white" stroke-miterlimit="10" stroke-linecap="round" stroke-linejoin="round"/>
<path fill-rule="evenodd" clip-rule="evenodd" d="M10.9374 13.0535C11.1064 13.2225 11.3803 13.2225 11.5492 13.0535L12.4668 12.1359C12.5224 12.0803 12.6127 12.0803 12.6683 12.1359C12.724 12.1916 12.724 12.2818 12.6683 12.3374L11.6499 13.3558C11.4254 13.5804 11.0613 13.5804 10.8367 13.3558L10.5308 13.0499C10.4752 12.9943 10.4752 12.9041 10.5308 12.8484C10.5865 12.7928 10.6767 12.7928 10.7323 12.8484L10.9374 13.0535Z" fill="#1655A2" stroke="white" stroke-width="0.5" stroke-linecap="round" stroke-linejoin="round"/>
<path fill-rule="evenodd" clip-rule="evenodd" d="M10.9374 16.0926C11.1064 16.2615 11.3803 16.2615 11.5492 16.0926L12.4668 15.175C12.5224 15.1193 12.6127 15.1193 12.6683 15.175C12.724 15.2306 12.724 15.3209 12.6683 15.3765L11.6499 16.3949C11.4254 16.6195 11.0613 16.6195 10.8367 16.3949L10.5308 16.089C10.4752 16.0334 10.4752 15.9431 10.5308 15.8875C10.5865 15.8318 10.6767 15.8318 10.7323 15.8875L10.9374 16.0926Z" fill="#1655A2" stroke="white" stroke-width="0.5" stroke-linecap="round" stroke-linejoin="round"/>
<path fill-rule="evenodd" clip-rule="evenodd" d="M10.9374 19.1316C11.1064 19.3006 11.3803 19.3006 11.5492 19.1316L12.4668 18.214C12.5224 18.1584 12.6127 18.1584 12.6683 18.214C12.724 18.2697 12.724 18.3599 12.6683 18.4156L11.6499 19.4339C11.4254 19.6585 11.0613 19.6585 10.8367 19.4339L10.5308 19.1281C10.4752 19.0724 10.4752 18.9822 10.5308 18.9265C10.5865 18.8709 10.6767 18.8709 10.7323 18.9265L10.9374 19.1316Z" fill="#1655A2" stroke="white" stroke-width="0.5" stroke-linecap="round" stroke-linejoin="round"/>
</svg>
