<svg width="30" height="30" viewBox="0 0 30 30" fill="none" xmlns="http://www.w3.org/2000/svg">
<path d="M5.1998 18.5326H18.1331H20.3998C20.6207 18.5326 20.7998 18.3535 20.7998 18.1326V6.977H11.022L8.90937 5.28687C8.83844 5.23013 8.75032 5.19922 8.65949 5.19922H4.7998V18.1326C4.7998 18.3535 4.97889 18.5326 5.1998 18.5326Z" fill="#1655A2"/>
<path fill-rule="evenodd" clip-rule="evenodd" d="M4.4502 4.84961H8.65988C8.83019 4.84961 8.99542 4.90757 9.1284 5.01396L11.1452 6.62739H21.1502V18.1329C21.1502 18.5472 20.8144 18.8829 20.4002 18.8829H5.20019C4.78598 18.8829 4.4502 18.5472 4.4502 18.1329V4.84961ZM5.1502 5.54961V18.1329C5.1502 18.1606 5.17258 18.1829 5.20019 18.1829H20.4002C20.4278 18.1829 20.4502 18.1606 20.4502 18.1329V7.32739H10.8996L8.69112 5.56057C8.68225 5.55347 8.67124 5.54961 8.65988 5.54961H5.1502Z" fill="white"/>
<path d="M7.60019 21.7327H20.5335H22.8002C23.0211 21.7327 23.2002 21.5537 23.2002 21.3327V10.1772H13.4224L11.3098 8.48707C11.2388 8.43033 11.1507 8.39941 11.0599 8.39941H7.2002V21.3327C7.2002 21.5537 7.37928 21.7327 7.60019 21.7327Z" fill="#1655A2"/>
<path fill-rule="evenodd" clip-rule="evenodd" d="M6.85059 8.0498H11.0603C11.2306 8.0498 11.3958 8.10777 11.5288 8.21415L13.5456 9.82758H23.5506V21.3331C23.5506 21.7474 23.2148 22.0831 22.8006 22.0831H7.60059C7.18637 22.0831 6.85059 21.7474 6.85059 21.3331V8.0498ZM7.55059 8.7498V21.3331C7.55059 21.3608 7.57297 21.3831 7.60059 21.3831H22.8006C22.8282 21.3831 22.8506 21.3608 22.8506 21.3331V10.5276H13.3L11.0915 8.76076C11.0826 8.75367 11.0716 8.7498 11.0603 8.7498H7.55059Z" fill="white"/>
<path d="M9.99961 24.9329H11.8218H25.1996C25.4205 24.9329 25.5996 24.7539 25.5996 24.5329V13.3774H15.8218L13.7092 11.6873C13.6382 11.6305 13.5501 11.5996 13.4593 11.5996H9.59961V24.5329C9.59961 24.7539 9.7787 24.9329 9.99961 24.9329Z" fill="#1655A2"/>
<path fill-rule="evenodd" clip-rule="evenodd" d="M9.25 11.25H13.4597C13.63 11.25 13.7952 11.308 13.9282 11.4143L15.945 13.0278H25.95V24.5333C25.95 24.9475 25.6142 25.2833 25.2 25.2833H10C9.58579 25.2833 9.25 24.9475 9.25 24.5333V11.25ZM9.95 11.95V24.5333C9.95 24.5609 9.97239 24.5833 10 24.5833H25.2C25.2276 24.5833 25.25 24.5609 25.25 24.5333V13.7278H15.6994L13.4909 11.961C13.4821 11.9539 13.471 11.95 13.4597 11.95H9.95Z" fill="white"/>
<path d="M15.7638 20.8155H15.481C15.4586 20.8155 15.4385 20.8018 15.4303 20.781L15.1253 20.0053C15.117 19.9844 15.0969 19.9707 15.0745 19.9707H13.5189C13.4966 19.9707 13.4764 19.9844 13.4682 20.0052L13.1612 20.781C13.153 20.8018 13.1329 20.8155 13.1105 20.8155H12.8544C12.8156 20.8155 12.7892 20.7761 12.8039 20.7402L14.2441 17.2331C14.2626 17.1881 14.3261 17.1879 14.3449 17.2327L14.4496 17.4825C14.4551 17.4957 14.4552 17.5105 14.45 17.5238L13.6409 19.5686C13.6268 19.6045 13.6531 19.6433 13.6917 19.6433H15.3299C15.352 19.6433 15.372 19.6567 15.3803 19.6773L15.8143 20.7402C15.829 20.7761 15.8026 20.8155 15.7638 20.8155Z" fill="white"/>
<path d="M22.5715 20.8155H22.3152C22.2929 20.8155 22.2727 20.8019 22.2645 20.781L21.9576 20.0051C21.9494 19.9843 21.9293 19.9706 21.9069 19.9706H20.3512C20.3288 19.9706 20.3087 19.9843 20.3004 20.0052L19.9954 20.7809C19.9872 20.8017 19.967 20.8154 19.9446 20.8154H19.662C19.6232 20.8154 19.5969 20.7761 19.6115 20.7402L20.0456 19.6772C20.054 19.6567 20.074 19.6433 20.0961 19.6433H21.7342C21.7727 19.6433 21.7991 19.6044 21.7849 19.5686L20.9759 17.5237C20.9707 17.5104 20.9708 17.4956 20.9764 17.4825L21.081 17.2327C21.0997 17.1879 21.1633 17.1881 21.1817 17.2331L22.6219 20.7401C22.6367 20.776 22.6104 20.8155 22.5715 20.8155Z" fill="white"/>
<path d="M20.079 18.5654V18.7845C20.079 18.8146 20.0546 18.8391 20.0244 18.8391H17.9694C17.9393 18.8391 17.9149 18.8635 17.9149 18.8937V20.761C17.9149 20.7912 17.8905 20.8156 17.8603 20.8156H17.6416C17.6115 20.8156 17.587 20.7912 17.587 20.761V18.8937C17.587 18.8636 17.5626 18.8391 17.5325 18.8391H15.4774C15.4473 18.8391 15.4229 18.8147 15.4229 18.7845V18.5654C15.4229 18.5352 15.4472 18.5107 15.4774 18.5107H20.0244C20.0546 18.5107 20.079 18.5352 20.079 18.5654Z" fill="white"/>
</svg>
