<svg width="22" height="22" viewBox="0 0 22 22" fill="none" xmlns="http://www.w3.org/2000/svg">
<path fill-rule="evenodd" clip-rule="evenodd" d="M0.450195 0.850586H4.65988C4.83019 0.850586 4.99542 0.908546 5.1284 1.01493L7.14519 2.62836H17.1502V14.1339C17.1502 14.5481 16.8144 14.8839 16.4002 14.8839H1.20019C0.785981 14.8839 0.450195 14.5481 0.450195 14.1339V0.850586ZM1.1502 1.55059V14.1339C1.1502 14.1615 1.17258 14.1839 1.20019 14.1839H16.4002C16.4278 14.1839 16.4502 14.1615 16.4502 14.1339V3.32836H6.89964L4.69112 1.56154C4.68225 1.55445 4.67124 1.55059 4.65988 1.55059H1.1502Z" fill="white"/>
<path d="M3.60019 17.7337H16.5335H18.8002C19.0211 17.7337 19.2002 17.5546 19.2002 17.3337V6.17817H9.42242L7.30976 4.48804C7.23883 4.4313 7.15071 4.40039 7.05988 4.40039H3.2002V17.3337C3.2002 17.5546 3.37928 17.7337 3.60019 17.7337Z" fill="#448DE5"/>
<path fill-rule="evenodd" clip-rule="evenodd" d="M2.85059 4.05078H7.06027C7.23058 4.05078 7.39581 4.10874 7.52879 4.21513L9.54558 5.82856H19.5506V17.3341C19.5506 17.7483 19.2148 18.0841 18.8006 18.0841H3.60059C3.18637 18.0841 2.85059 17.7483 2.85059 17.3341V4.05078ZM3.55059 4.75078V17.3341C3.55059 17.3617 3.57297 17.3841 3.60059 17.3841H18.8006C18.8282 17.3841 18.8506 17.3617 18.8506 17.3341V6.52856H9.30003L7.09151 4.76174C7.08264 4.75465 7.07163 4.75078 7.06027 4.75078H3.55059Z" fill="white"/>
<path d="M5.99961 20.9329H7.82183H21.1996C21.4205 20.9329 21.5996 20.7539 21.5996 20.5329V9.37739H11.8218L9.70918 7.68726C9.63825 7.63052 9.55013 7.59961 9.4593 7.59961H5.59961V20.5329C5.59961 20.7539 5.7787 20.9329 5.99961 20.9329Z" fill="#448DE5"/>
<path fill-rule="evenodd" clip-rule="evenodd" d="M5.25 7.25H9.45969C9.62999 7.25 9.79522 7.30796 9.92821 7.41435L11.945 9.02778H21.95V20.5333C21.95 20.9475 21.6142 21.2833 21.2 21.2833H6C5.58579 21.2833 5.25 20.9475 5.25 20.5333V7.25ZM5.95 7.95V20.5333C5.95 20.5609 5.97239 20.5833 6 20.5833H21.2C21.2276 20.5833 21.25 20.5609 21.25 20.5333V9.72778H11.6994L9.49092 7.96096C9.48206 7.95386 9.47104 7.95 9.45969 7.95H5.95Z" fill="white"/>
<path fill-rule="evenodd" clip-rule="evenodd" d="M11.2734 17.8559H15.9262C15.7191 16.76 14.7561 15.9309 13.5998 15.9309C12.4435 15.9309 11.4805 16.76 11.2734 17.8559ZM10.8007 18.0458C10.9285 16.6122 12.1329 15.4883 13.5998 15.4883C15.0667 15.4883 16.2711 16.6122 16.3989 18.0458C16.4113 18.185 16.2969 18.2986 16.1572 18.2986H11.0424C10.9028 18.2986 10.7883 18.185 10.8007 18.0458Z" fill="#071930"/>
<path fill-rule="evenodd" clip-rule="evenodd" d="M15.9262 17.8559C15.9156 17.7997 15.903 17.7441 15.8884 17.6892C15.8803 17.6588 15.8716 17.6285 15.8624 17.5986C15.8145 17.4436 15.7511 17.2955 15.6741 17.1559C15.2709 16.4257 14.493 15.9309 13.5998 15.9309C12.7066 15.9309 11.9287 16.4257 11.5255 17.1559C11.4485 17.2955 11.3851 17.4436 11.3372 17.5986C11.328 17.6285 11.3193 17.6588 11.3112 17.6892C11.2966 17.7441 11.284 17.7997 11.2734 17.8559H15.9262ZM10.8384 17.7738C10.8216 17.863 10.8089 17.9538 10.8007 18.0458C10.7883 18.185 10.9028 18.2986 11.0424 18.2986H16.1572C16.2969 18.2986 16.4113 18.185 16.3989 18.0458C16.3907 17.9538 16.378 17.863 16.3612 17.7738C16.1154 16.4725 14.9725 15.4883 13.5998 15.4883C12.2271 15.4883 11.0842 16.4725 10.8384 17.7738Z" fill="white"/>
<path fill-rule="evenodd" clip-rule="evenodd" d="M13.5995 14.603C14.1311 14.603 14.562 14.1721 14.562 13.6405C14.562 13.1089 14.1311 12.678 13.5995 12.678C13.0679 12.678 12.637 13.1089 12.637 13.6405C12.637 14.1721 13.0679 14.603 13.5995 14.603ZM13.5995 15.0456C14.3755 15.0456 15.0046 14.4165 15.0046 13.6405C15.0046 12.8645 14.3755 12.2354 13.5995 12.2354C12.8234 12.2354 12.1943 12.8645 12.1943 13.6405C12.1943 14.4165 12.8234 15.0456 13.5995 15.0456Z" fill="#071930"/>
<path fill-rule="evenodd" clip-rule="evenodd" d="M14.562 13.6405C14.562 14.1721 14.1311 14.603 13.5995 14.603C13.0679 14.603 12.637 14.1721 12.637 13.6405C12.637 13.1089 13.0679 12.678 13.5995 12.678C14.1311 12.678 14.562 13.1089 14.562 13.6405ZM15.0046 13.6405C15.0046 14.4165 14.3755 15.0456 13.5995 15.0456C12.8234 15.0456 12.1943 14.4165 12.1943 13.6405C12.1943 12.8645 12.8234 12.2354 13.5995 12.2354C14.3755 12.2354 15.0046 12.8645 15.0046 13.6405Z" fill="white"/>
</svg>
