<svg width="20" height="19" viewBox="0 0 20 19" fill="none" xmlns="http://www.w3.org/2000/svg">
<path fill-rule="evenodd" clip-rule="evenodd" d="M0 9.5C0 14.7467 4.34432 19 9.70331 19C15.0623 19 19.4066 14.7467 19.4066 9.5C19.4066 4.25329 15.0623 0 9.70331 0C4.34432 0 0 4.25329 0 9.5ZM17.9365 9.50005C17.9365 13.9518 14.2504 17.5607 9.70335 17.5607C5.15633 17.5607 1.47024 13.9518 1.47024 9.50005C1.47024 5.0483 5.15633 1.43944 9.70335 1.43944C14.2504 1.43944 17.9365 5.0483 17.9365 9.50005ZM9.70361 14.8423C10.2062 14.8423 10.6136 14.4435 10.6136 13.9517C10.6136 13.4598 10.2062 13.061 9.70361 13.061C9.20104 13.061 8.79362 13.4598 8.79362 13.9517C8.79362 14.4435 9.20104 14.8423 9.70361 14.8423ZM10.6163 4.1548H8.79628V11.2798H10.6163V4.1548Z" fill="#071930"/>
</svg>
