<svg width="27" height="20" viewBox="0 0 27 20" fill="none" xmlns="http://www.w3.org/2000/svg">
<path d="M1.76172 5.28125H7.92172" stroke="white" stroke-width="1.2" stroke-miterlimit="10" stroke-linecap="round" stroke-linejoin="round"/>
<path d="M4.39844 7.92188H9.67844" stroke="white" stroke-width="1.2" stroke-miterlimit="10" stroke-linecap="round" stroke-linejoin="round"/>
<path d="M20.8061 16.7218C21.933 16.7218 22.8465 15.8213 22.8465 14.7105C22.8465 13.5997 21.933 12.6992 20.8061 12.6992C19.6792 12.6992 18.7656 13.5997 18.7656 14.7105C18.7656 15.8213 19.6792 16.7218 20.8061 16.7218Z" stroke="white" stroke-width="1.2" stroke-miterlimit="10" stroke-linecap="round" stroke-linejoin="round"/>
<path d="M24.8844 11.6901V14.707H22.844C22.844 13.6008 21.936 12.6957 20.8035 12.6957C19.6813 12.6957 18.7631 13.6008 18.7631 14.707H16.7227V5.65625H17.7429C19.4364 5.65625 21.8237 9.67882 21.8237 9.67882H22.844C23.9662 9.67882 24.8844 10.5839 24.8844 11.6901Z" stroke="white" stroke-width="1.2" stroke-miterlimit="10" stroke-linecap="round" stroke-linejoin="round"/>
<path d="M9.5834 16.7218C10.7103 16.7218 11.6238 15.8213 11.6238 14.7105C11.6238 13.5997 10.7103 12.6992 9.5834 12.6992C8.4565 12.6992 7.54297 13.5997 7.54297 14.7105C7.54297 15.8213 8.4565 16.7218 9.5834 16.7218Z" stroke="white" stroke-width="1.2" stroke-miterlimit="10" stroke-linecap="round" stroke-linejoin="round"/>
<path d="M5.5 10.6075V14.7083H7.54043C7.54043 13.6021 8.45863 12.697 9.58087 12.697C10.7133 12.697 11.6213 13.6021 11.6213 14.7083H16.7224V3.64627C16.7224 3.09316 16.2633 2.64062 15.7022 2.64062H6.52022" stroke="white" stroke-width="1.2" stroke-miterlimit="10" stroke-linecap="round" stroke-linejoin="round"/>
</svg>
