<svg width="57" height="37" viewBox="0 0 57 37" fill="none" xmlns="http://www.w3.org/2000/svg">
<g opacity="0.2">
<path d="M45.4297 34.9984C47.9997 34.9984 50.083 32.8877 50.083 30.2841C50.083 27.6805 47.9997 25.5698 45.4297 25.5698C42.8597 25.5698 40.7764 27.6805 40.7764 30.2841C40.7764 32.8877 42.8597 34.9984 45.4297 34.9984Z" stroke="#071930" stroke-width="2.67568" stroke-miterlimit="10" stroke-linecap="round" stroke-linejoin="round"/>
<path d="M54.7334 23.2126V30.2841H50.0801C50.0801 27.6912 48.0094 25.5698 45.4268 25.5698C42.8674 25.5698 40.7734 27.6912 40.7734 30.2841H36.1201V9.06982H38.4468C42.309 9.06982 47.7534 18.4984 47.7534 18.4984H50.0801C52.6394 18.4984 54.7334 20.6198 54.7334 23.2126Z" stroke="#071930" stroke-width="2.67568" stroke-miterlimit="10" stroke-linecap="round" stroke-linejoin="round"/>
<path d="M19.832 34.9984C22.402 34.9984 24.4854 32.8877 24.4854 30.2841C24.4854 27.6805 22.402 25.5698 19.832 25.5698C17.2621 25.5698 15.1787 27.6805 15.1787 30.2841C15.1787 32.8877 17.2621 34.9984 19.832 34.9984Z" stroke="#071930" stroke-width="2.67568" stroke-miterlimit="10" stroke-linecap="round" stroke-linejoin="round"/>
<path d="M10.5273 20.6738V30.2856H15.1807C15.1807 27.6928 17.2747 25.5714 19.834 25.5714C22.4166 25.5714 24.4874 27.6928 24.4874 30.2856H36.1207V4.35714C36.1207 3.06071 35.0737 2 33.794 2H12.854" stroke="#071930" stroke-width="2.67568" stroke-miterlimit="10" stroke-linecap="round" stroke-linejoin="round"/>
<path d="M2 7.76123H16.2185" stroke="#071930" stroke-width="2.67568" stroke-miterlimit="10" stroke-linecap="round" stroke-linejoin="round"/>
<path d="M7.69141 13.5273H19.0662" stroke="#071930" stroke-width="2.67568" stroke-miterlimit="10" stroke-linecap="round" stroke-linejoin="round"/>
</g>
</svg>
