<svg width="26" height="17" viewBox="0 0 26 17" fill="none" xmlns="http://www.w3.org/2000/svg">
<path d="M20.4776 16.0005C21.6302 16.0005 22.5645 15.0412 22.5645 13.8577C22.5645 12.6742 21.6302 11.7148 20.4776 11.7148C19.325 11.7148 18.3906 12.6742 18.3906 13.8577C18.3906 15.0412 19.325 16.0005 20.4776 16.0005Z" stroke="#9E9E9E" stroke-miterlimit="10" stroke-linecap="round" stroke-linejoin="round"/>
<path d="M24.6486 10.6434V13.8577H22.5616C22.5616 12.6791 21.6329 11.7148 20.4747 11.7148C19.3269 11.7148 18.3877 12.6791 18.3877 13.8577H16.3008V4.21484H17.3443C19.0764 4.21484 21.5182 8.50055 21.5182 8.50055H22.5616C23.7094 8.50055 24.6486 9.46483 24.6486 10.6434Z" stroke="#9E9E9E" stroke-miterlimit="10" stroke-linecap="round" stroke-linejoin="round"/>
<path d="M8.99711 16.0005C10.1497 16.0005 11.0841 15.0412 11.0841 13.8577C11.0841 12.6742 10.1497 11.7148 8.99711 11.7148C7.84452 11.7148 6.91016 12.6742 6.91016 13.8577C6.91016 15.0412 7.84452 16.0005 8.99711 16.0005Z" stroke="#9E9E9E" stroke-miterlimit="10" stroke-linecap="round" stroke-linejoin="round"/>
<path d="M4.82422 9.48807V13.8571H6.91117C6.91117 12.6785 7.8503 11.7143 8.99812 11.7143C10.1564 11.7143 11.0851 12.6785 11.0851 13.8571H16.3024V2.07143C16.3024 1.48214 15.8329 1 15.259 1H5.86769" stroke="#9E9E9E" stroke-miterlimit="10" stroke-linecap="round" stroke-linejoin="round"/>
<path d="M1 3.61719H7.3768" stroke="#9E9E9E" stroke-miterlimit="10" stroke-linecap="round" stroke-linejoin="round"/>
<path d="M3.55078 6.23828H8.65222" stroke="#9E9E9E" stroke-miterlimit="10" stroke-linecap="round" stroke-linejoin="round"/>
</svg>
