<svg width="14" height="14" viewBox="0 0 14 14" fill="none" xmlns="http://www.w3.org/2000/svg">
<path d="M14 7C14 10.866 10.866 14 7 14C3.13401 14 0 10.866 0 7C0 3.13401 3.13401 0 7 0C10.866 0 14 3.13401 14 7Z" fill="#C4C4C4"/>
<path d="M6.10103 5.16906H7.90103V11.0011H6.10103V5.16906ZM5.95703 3.33306C5.95703 3.04506 6.05703 2.80106 6.25703 2.60106C6.46503 2.39306 6.71303 2.28906 7.00103 2.28906C7.28903 2.28906 7.53303 2.39306 7.73303 2.60106C7.94103 2.80106 8.04503 3.04506 8.04503 3.33306C8.04503 3.62106 7.94103 3.86906 7.73303 4.07706C7.53303 4.27706 7.28903 4.37706 7.00103 4.37706C6.71303 4.37706 6.46503 4.27706 6.25703 4.07706C6.05703 3.86906 5.95703 3.62106 5.95703 3.33306Z" fill="white"/>
</svg>
