<svg width="16" height="20" viewBox="0 0 16 20" fill="none" xmlns="http://www.w3.org/2000/svg">
<path d="M14 19.25H2C1.30964 19.25 0.75 18.6904 0.75 18V2C0.75 1.30964 1.30964 0.75 2 0.75H9.67157C10.0031 0.75 10.321 0.881697 10.5555 1.11612L14.8839 5.44454C15.1183 5.67896 15.25 5.99691 15.25 6.32843V18C15.25 18.6904 14.6904 19.25 14 19.25Z" stroke="white" stroke-width="1.5"/>
<path d="M15 5.5H11.5C10.9477 5.5 10.5 5.05228 10.5 4.5V1" stroke="white" stroke-width="1.5"/>
<line x1="3.75" y1="15.918" x2="12.25" y2="15.918" stroke="white" stroke-width="1.5" stroke-linecap="round"/>
<path d="M6.66554 4.22188C7.07295 4.22188 7.46924 4.29225 7.85443 4.43299C8.24702 4.56632 8.58406 4.78113 8.86554 5.07743L8.06554 5.85521C7.89517 5.64039 7.68776 5.47373 7.44332 5.35521C7.20628 5.22928 6.94702 5.16262 6.66554 5.15521V7.77743L6.64332 7.78854C6.96183 7.87743 7.26554 7.97743 7.55443 8.08854C7.85072 8.19225 8.10998 8.32928 8.3322 8.49965C8.55443 8.66262 8.7322 8.87002 8.86554 9.12188C8.99887 9.37373 9.06554 9.68854 9.06554 10.0663C9.06554 10.4071 8.99887 10.7145 8.86554 10.9885C8.73961 11.2626 8.56554 11.4997 8.34332 11.6997C8.1285 11.8922 7.87295 12.0441 7.57665 12.1552C7.28776 12.2663 6.98406 12.333 6.66554 12.3552V13.1552H6.06554V12.3552C5.57665 12.3552 5.12109 12.2774 4.69887 12.1219C4.28406 11.9589 3.9248 11.6811 3.62109 11.2885L4.47665 10.5219C4.64702 10.8034 4.87665 11.0219 5.16554 11.1774C5.45443 11.3256 5.75443 11.4071 6.06554 11.4219V8.68854C5.76183 8.61447 5.47295 8.52188 5.19887 8.41076C4.9322 8.29225 4.69146 8.1441 4.47665 7.96632C4.26924 7.78854 4.10258 7.57373 3.97665 7.32188C3.85813 7.07002 3.79887 6.76632 3.79887 6.41076C3.79887 6.09225 3.86183 5.80706 3.98776 5.55521C4.11369 5.29595 4.28035 5.07373 4.48776 4.88854C4.69517 4.69595 4.93591 4.5441 5.20998 4.43299C5.48406 4.31447 5.76924 4.2441 6.06554 4.22188V3.42188H6.66554V4.22188ZM6.06554 5.15521C5.70998 5.21447 5.42109 5.35151 5.19887 5.56632C4.97665 5.77373 4.86554 6.05521 4.86554 6.41076C4.86554 6.58854 4.89887 6.7441 4.96554 6.87743C5.0322 7.00336 5.12109 7.11447 5.2322 7.21076C5.34332 7.30706 5.46924 7.38854 5.60998 7.45521C5.75813 7.52188 5.90998 7.57743 6.06554 7.62188V5.15521ZM6.66554 11.4219C6.85072 11.3997 7.02109 11.3552 7.17665 11.2885C7.33961 11.2219 7.48035 11.133 7.59887 11.0219C7.7248 10.9108 7.82109 10.7811 7.88776 10.633C7.96183 10.4774 7.99887 10.3034 7.99887 10.1108C7.99887 9.91817 7.95813 9.75521 7.87665 9.62188C7.80258 9.48113 7.70258 9.36262 7.57665 9.26632C7.45813 9.17002 7.31739 9.08854 7.15443 9.02188C6.99146 8.95521 6.8285 8.89595 6.66554 8.8441V11.4219Z" fill="white"/>
</svg>
