<svg width="150" height="14" viewBox="0 0 150 14" fill="none" xmlns="http://www.w3.org/2000/svg">
<path d="M11.0481 13.6358H9.994C9.91046 13.6358 9.83544 13.5847 9.80476 13.5069L8.66798 10.6157C8.6373 10.5379 8.56228 10.4868 8.47874 10.4868H2.68043C2.59712 10.4868 2.5221 10.5376 2.49142 10.6154L1.34725 13.5071C1.31657 13.5847 1.24155 13.6358 1.15824 13.6358H0.203538C0.0588657 13.6358 -0.0394487 13.4887 0.0154193 13.3549L5.38352 0.28236C5.45227 0.114888 5.68899 0.113991 5.75909 0.281015L6.14943 1.21232C6.17004 1.26141 6.17048 1.31657 6.151 1.36611L3.13528 8.98802C3.08243 9.12164 3.18074 9.26647 3.32429 9.26647H9.43054C9.51317 9.26647 9.58753 9.31646 9.61865 9.39291L11.2363 13.3551C11.2911 13.4889 11.1926 13.6358 11.0481 13.6358Z" fill="white"/>
<path d="M36.4235 13.6356H35.4681C35.3848 13.6356 35.3098 13.5847 35.2791 13.507L34.1352 10.6151C34.1045 10.5375 34.0294 10.4864 33.9461 10.4864H28.1474C28.0638 10.4864 27.9888 10.5375 27.9581 10.6153L26.8211 13.5065C26.7905 13.5843 26.7154 13.6354 26.6319 13.6354H25.5784C25.434 13.6354 25.3357 13.4888 25.3903 13.3549L27.0084 9.39277C27.0397 9.31633 27.1141 9.26633 27.1965 9.26633H33.3023C33.4458 9.26633 33.5441 9.1215 33.4913 8.98788L30.476 1.36575C30.4565 1.3162 30.457 1.26105 30.4776 1.21217L30.8675 0.281099C30.9374 0.114075 31.1743 0.114747 31.243 0.282444L36.6114 13.3547C36.6665 13.4886 36.5682 13.6356 36.4235 13.6356Z" fill="white"/>
<path d="M27.1326 5.24654V6.06327C27.1326 6.1756 27.0417 6.26684 26.9293 6.26684H19.2695C19.1573 6.26684 19.0662 6.35787 19.0662 6.47041V13.4307C19.0662 13.543 18.9752 13.6343 18.8628 13.6343H18.0474C17.9352 13.6343 17.8441 13.5433 17.8441 13.4307V6.47041C17.8441 6.35809 17.7531 6.26684 17.6407 6.26684H9.98069C9.86849 6.26684 9.77734 6.17582 9.77734 6.06327V5.24654C9.77734 5.13422 9.86827 5.04297 9.98069 5.04297H26.9293C27.0417 5.04297 27.1326 5.13399 27.1326 5.24654Z" fill="white"/>
<path d="M49.253 1.41016H45.1621V0.15625H54.7524V1.41016H50.6623V13.479H49.2532V1.41016H49.253Z" fill="white"/>
<path d="M60.0722 0.0195312H60.3072L65.9433 13.4792H64.4561L63.5553 11.2454H56.8234L55.943 13.4792H54.5527L60.0722 0.0195312ZM63.0472 10.0307L60.6982 4.11398C60.4444 3.48758 60.19 2.52781 60.19 2.52781C60.19 2.52781 59.9157 3.48758 59.6622 4.11398L57.312 10.0307H63.0472Z" fill="white"/>
<path d="M68.4846 0.15625H73.0055C75.4909 0.15625 76.6657 1.62561 76.6657 3.42836C76.6657 4.74101 76.0783 5.70078 74.9431 6.07317C76.6657 6.48479 77.6829 7.79744 77.6829 9.55983C77.6829 11.7742 76.3139 13.4787 73.4744 13.4787H68.4844V0.15625H68.4846ZM73.1034 5.60348C74.6495 5.60348 75.2564 4.7215 75.2564 3.50593C75.2564 2.29125 74.6103 1.41016 72.9067 1.41016H69.8935V5.60348H73.1034ZM73.3775 12.225C75.4123 12.225 76.2544 11.0684 76.2544 9.52082C76.2544 7.95348 75.3339 6.81816 73.2993 6.81816H69.8935V12.225H73.3775Z" fill="white"/>
<path d="M80.4004 0.15625H81.8111V12.225H88.0936V13.4787H80.4004V0.15625Z" fill="white"/>
<path d="M95.1351 0.0195312H95.3691L101.006 13.4792H99.5189L98.6189 11.2454H91.8872L91.0052 13.4792H89.6172L95.1351 0.0195312ZM98.1101 10.0307L95.7619 4.11375C95.5064 3.48736 95.2529 2.52759 95.2529 2.52759C95.2529 2.52759 94.9797 3.48736 94.7242 4.11375L92.3758 10.0307H98.1101Z" fill="white"/>
<path d="M101.902 6.81862C101.902 2.80152 104.955 0 108.732 0C111.08 0 112.881 0.882202 114.016 2.58607L112.941 3.37008C112.08 2.09688 110.651 1.27432 108.732 1.27432C105.621 1.27432 103.369 3.64472 103.369 6.81885C103.369 9.99208 105.621 12.3623 108.732 12.3623C110.67 12.3623 112.157 11.5202 113.116 10.1293L114.212 10.8929C113.037 12.6172 111.12 13.6366 108.732 13.6366C104.955 13.6364 101.902 10.8346 101.902 6.81862Z" fill="white"/>
<path d="M121.002 0.0195312H121.236L126.872 13.4792H125.385L124.485 11.2454H117.752L116.872 13.4792H115.482L121.002 0.0195312ZM123.976 10.0307L121.628 4.11375C121.372 3.48736 121.118 2.52759 121.118 2.52759C121.118 2.52759 120.845 3.48736 120.59 4.11375L118.242 10.0307H123.976Z" fill="white"/>
<path d="M128.16 10.9319L129.335 10.3055C129.961 11.422 130.88 12.3824 132.76 12.3824C134.305 12.3824 135.521 11.52 135.521 10.1093C135.521 8.75768 134.678 8.07142 133.015 7.32844L131.957 6.83746C130.06 5.97566 129.021 5.05512 129.021 3.19364C129.021 1.27432 130.529 0 132.524 0C134.305 0 135.422 0.822566 136.127 1.99801L134.991 2.70445C134.482 1.88121 133.778 1.25391 132.524 1.25391C131.214 1.25391 130.412 2.01841 130.412 3.15463C130.412 4.32985 131.037 4.85917 132.524 5.54453L133.583 6.03439C135.794 7.0139 136.929 8.11065 136.929 10.1093C136.929 12.304 135.187 13.6364 132.799 13.6364C130.254 13.6364 128.864 12.3432 128.16 10.9319Z" fill="white"/>
<path d="M144.129 0.0195312H144.363L149.999 13.4792H148.512L147.612 11.2454H140.879L139.999 13.4792H138.609L144.129 0.0195312ZM147.102 10.0307L144.754 4.11375C144.499 3.48736 144.245 2.52759 144.245 2.52759C144.245 2.52759 143.972 3.48736 143.716 4.11375L141.368 10.0307H147.102Z" fill="white"/>
</svg>
