<svg width="26" height="22" viewBox="0 0 26 22" fill="none" xmlns="http://www.w3.org/2000/svg">
<path d="M4.33333 21H2C1.44771 21 1 20.5523 1 20V1H6.64922C6.87629 1 7.0966 1.07728 7.27391 1.21913L10.3333 3.66667H25V20C25 20.5523 24.5523 21 24 21H21" stroke="#448DE5" stroke-width="1.3"/>
<path d="M7.05017 20.7665C7.48419 17.8708 9.98336 15.65 13 15.65C16.0167 15.65 18.5159 17.8708 18.9499 20.7665C18.9588 20.8258 18.9423 20.8773 18.8974 20.9243C18.8483 20.9758 18.7666 21.0167 18.6667 21.0167H7.33337C7.23351 21.0167 7.1518 20.9758 7.10265 20.9243C7.05776 20.8773 7.04129 20.8258 7.05017 20.7665Z" stroke="#448DE5" stroke-width="1.3"/>
<path d="M15.6833 9.66536C15.6833 11.1473 14.4819 12.3487 13 12.3487C11.518 12.3487 10.3166 11.1473 10.3166 9.66536C10.3166 8.1834 11.518 6.98203 13 6.98203C14.4819 6.98203 15.6833 8.1834 15.6833 9.66536Z" stroke="#448DE5" stroke-width="1.3"/>
</svg>
