<svg width="22" height="22" viewBox="0 0 22 22" fill="none" xmlns="http://www.w3.org/2000/svg">
<path d="M1.1998 14.5326H14.1331H16.3998C16.6207 14.5326 16.7998 14.3535 16.7998 14.1326V2.977H7.02203L4.90937 1.28687C4.83845 1.23013 4.75032 1.19922 4.65949 1.19922H0.799805V14.1326C0.799805 14.3535 0.97889 14.5326 1.1998 14.5326Z" fill="#448DE5"/>
<path fill-rule="evenodd" clip-rule="evenodd" d="M0.450195 0.849609H4.65988C4.83018 0.849609 4.99542 0.90757 5.1284 1.01396L7.14519 2.62739H17.1502V14.1329C17.1502 14.5472 16.8144 14.8829 16.4002 14.8829H1.20019C0.785981 14.8829 0.450195 14.5472 0.450195 14.1329V0.849609ZM1.1502 1.54961V14.1329C1.1502 14.1606 1.17258 14.1829 1.20019 14.1829H16.4002C16.4278 14.1829 16.4502 14.1606 16.4502 14.1329V3.32739H6.89964L4.69112 1.56057C4.68225 1.55347 4.67124 1.54961 4.65988 1.54961H1.1502Z" fill="white"/>
<path d="M3.60019 17.7327H16.5335H18.8002C19.0211 17.7327 19.2002 17.5537 19.2002 17.3327V6.17719H9.42242L7.30976 4.48707C7.23884 4.43033 7.15071 4.39941 7.05988 4.39941H3.2002V17.3327C3.2002 17.5537 3.37928 17.7327 3.60019 17.7327Z" fill="#448DE5"/>
<path fill-rule="evenodd" clip-rule="evenodd" d="M2.85059 4.0498H7.06027C7.23058 4.0498 7.39581 4.10777 7.52879 4.21415L9.54558 5.82758H19.5506V17.3331C19.5506 17.7474 19.2148 18.0831 18.8006 18.0831H3.60059C3.18637 18.0831 2.85059 17.7474 2.85059 17.3331V4.0498ZM3.55059 4.7498V17.3331C3.55059 17.3608 3.57297 17.3831 3.60059 17.3831H18.8006C18.8282 17.3831 18.8506 17.3608 18.8506 17.3331V6.52758H9.30003L7.09151 4.76076C7.08264 4.75367 7.07163 4.7498 7.06027 4.7498H3.55059Z" fill="white"/>
<path d="M5.99961 20.9329H7.82183H21.1996C21.4205 20.9329 21.5996 20.7539 21.5996 20.5329V9.37739H11.8218L9.70918 7.68726C9.63825 7.63052 9.55013 7.59961 9.4593 7.59961H5.59961V20.5329C5.59961 20.7539 5.7787 20.9329 5.99961 20.9329Z" fill="#448DE5"/>
<path fill-rule="evenodd" clip-rule="evenodd" d="M5.25 7.25H9.45969C9.62999 7.25 9.79522 7.30796 9.92821 7.41435L11.945 9.02778H21.95V20.5333C21.95 20.9475 21.6142 21.2833 21.2 21.2833H6C5.58579 21.2833 5.25 20.9475 5.25 20.5333V7.25ZM5.95 7.95V20.5333C5.95 20.5609 5.97239 20.5833 6 20.5833H21.2C21.2276 20.5833 21.25 20.5609 21.25 20.5333V9.72778H11.6994L9.49092 7.96096C9.48206 7.95386 9.47104 7.95 9.45969 7.95H5.95Z" fill="white"/>
<path d="M11.7638 16.8155H11.481C11.4586 16.8155 11.4385 16.8018 11.4303 16.781L11.1253 16.0053C11.117 15.9844 11.0969 15.9707 11.0745 15.9707H9.51892C9.49657 15.9707 9.47644 15.9844 9.46821 16.0052L9.16125 16.781C9.15302 16.8018 9.13289 16.8155 9.11054 16.8155H8.85441C8.8156 16.8155 8.78922 16.7761 8.80394 16.7402L10.2441 13.2331C10.2626 13.1881 10.3261 13.1879 10.3449 13.2327L10.4496 13.4825C10.4551 13.4957 10.4552 13.5105 10.45 13.5238L9.64095 15.5686C9.62677 15.6045 9.65314 15.6433 9.69165 15.6433H11.3299C11.352 15.6433 11.372 15.6567 11.3803 15.6773L11.8143 16.7402C11.829 16.7761 11.8026 16.8155 11.7638 16.8155Z" fill="white"/>
<path d="M18.5715 16.8155H18.3152C18.2929 16.8155 18.2727 16.8019 18.2645 16.781L17.9576 16.0051C17.9494 15.9843 17.9293 15.9706 17.9069 15.9706H16.3512C16.3288 15.9706 16.3087 15.9843 16.3004 16.0052L15.9954 16.7809C15.9872 16.8017 15.967 16.8154 15.9446 16.8154H15.662C15.6232 16.8154 15.5969 16.7761 15.6115 16.7402L16.0456 15.6772C16.054 15.6567 16.074 15.6433 16.0961 15.6433H17.7342C17.7727 15.6433 17.7991 15.6044 17.7849 15.5686L16.9759 13.5237C16.9707 13.5104 16.9708 13.4956 16.9764 13.4825L17.081 13.2327C17.0997 13.1879 17.1633 13.1881 17.1817 13.2331L18.6219 16.7401C18.6367 16.776 18.6104 16.8155 18.5715 16.8155Z" fill="white"/>
<path d="M16.079 14.5654V14.7845C16.079 14.8146 16.0546 14.8391 16.0244 14.8391H13.9694C13.9393 14.8391 13.9149 14.8635 13.9149 14.8937V16.761C13.9149 16.7912 13.8905 16.8156 13.8603 16.8156H13.6416C13.6115 16.8156 13.587 16.7912 13.587 16.761V14.8937C13.587 14.8636 13.5626 14.8391 13.5325 14.8391H11.4774C11.4473 14.8391 11.4229 14.8147 11.4229 14.7845V14.5654C11.4229 14.5352 11.4472 14.5107 11.4774 14.5107H16.0244C16.0546 14.5107 16.079 14.5352 16.079 14.5654Z" fill="white"/>
</svg>
