<svg width="59" height="54" viewBox="0 0 59 54" fill="none" xmlns="http://www.w3.org/2000/svg">
<path d="M2 35.6717H57.5839" stroke="#646464" stroke-width="2.25" stroke-linecap="round" stroke-linejoin="round"/>
<path d="M21.8514 52.3469C24.249 49.3195 25.6375 45.6169 25.8217 41.7595" stroke="#646464" stroke-width="2.25" stroke-linejoin="round"/>
<path d="M37.7325 52.3469C35.335 49.3195 33.9465 45.6169 33.7623 41.7595" stroke="#646464" stroke-width="2.25" stroke-linejoin="round"/>
<path d="M17.8812 52.347H41.7029" stroke="#646464" stroke-width="2.25" stroke-linecap="round" stroke-linejoin="round"/>
<path d="M23.5113 30.7809C24.7427 30.7809 25.7409 29.7827 25.7409 28.5513C25.7409 27.3199 24.7427 26.3217 23.5113 26.3217C22.2799 26.3217 21.2817 27.3199 21.2817 28.5513C21.2817 29.7827 22.2799 30.7809 23.5113 30.7809Z" stroke="#646464" stroke-width="2" stroke-miterlimit="10" stroke-linecap="round" stroke-linejoin="round"/>
<path d="M36.1458 30.7809C37.3772 30.7809 38.3754 29.7827 38.3754 28.5513C38.3754 27.3199 37.3772 26.3217 36.1458 26.3217C34.9144 26.3217 33.9162 27.3199 33.9162 28.5513C33.9162 29.7827 34.9144 30.7809 36.1458 30.7809Z" stroke="#646464" stroke-width="2" stroke-miterlimit="10" stroke-linecap="round" stroke-linejoin="round"/>
<path d="M20.3898 12.2008H38.3753L36.8889 23.3489H22.0248L19.7952 8.48479H16.8224" stroke="#646464" stroke-width="2" stroke-miterlimit="10" stroke-linecap="round" stroke-linejoin="round"/>
<rect x="2" y="2" width="55.5839" height="39.8352" rx="3" stroke="#646464" stroke-width="2.25" stroke-linecap="round" stroke-linejoin="round"/>
</svg>
