<svg width="54" height="52" viewBox="0 0 54 52" fill="none" xmlns="http://www.w3.org/2000/svg">
<path d="M2 34.3333H34.3333H40C40.5523 34.3333 41 33.8856 41 33.3333V5.44444H16.5556L11.2739 1.21913C11.0966 1.07728 10.8763 1 10.6492 1H1V33.3333C1 33.8856 1.44771 34.3333 2 34.3333Z" fill="white" stroke="#1655A2" stroke-width="1.75"/>
<path d="M8 42.3333H40.3333H46C46.5523 42.3333 47 41.8856 47 41.3333V13.4444H22.5556L17.2739 9.21913C17.0966 9.07728 16.8763 9 16.6492 9H7V41.3333C7 41.8856 7.44771 42.3333 8 42.3333Z" fill="white" stroke="#1655A2" stroke-width="1.75"/>
<path d="M14 50.3333H18.5556H52C52.5523 50.3333 53 49.8856 53 49.3333V21.4444H28.5556L23.2739 17.2191C23.0966 17.0773 22.8763 17 22.6492 17H13V49.3333C13 49.8856 13.4477 50.3333 14 50.3333Z" fill="white" stroke="#1655A2" stroke-width="1.75"/>
<mask id="path-4-inside-1" fill="white">
<path fill-rule="evenodd" clip-rule="evenodd" d="M27.1839 42.6396H38.8161C38.2983 39.8999 35.8907 37.827 33 37.827C30.1093 37.827 27.7017 39.8999 27.1839 42.6396ZM26.0023 43.1143C26.3218 39.5302 29.3328 36.7205 33 36.7205C36.6672 36.7205 39.6782 39.5302 39.9977 43.1143C40.0287 43.4621 39.7426 43.7462 39.3934 43.7462H26.6066C26.2574 43.7462 25.9713 43.4621 26.0023 43.1143Z"/>
</mask>
<path fill-rule="evenodd" clip-rule="evenodd" d="M27.1839 42.6396H38.8161C38.2983 39.8999 35.8907 37.827 33 37.827C30.1093 37.827 27.7017 39.8999 27.1839 42.6396ZM26.0023 43.1143C26.3218 39.5302 29.3328 36.7205 33 36.7205C36.6672 36.7205 39.6782 39.5302 39.9977 43.1143C40.0287 43.4621 39.7426 43.7462 39.3934 43.7462H26.6066C26.2574 43.7462 25.9713 43.4621 26.0023 43.1143Z" fill="#071930"/>
<path d="M38.8161 42.6396V44.3896H40.9278L40.5357 42.3147L38.8161 42.6396ZM27.1839 42.6396L25.4643 42.3147L25.0722 44.3896H27.1839V42.6396ZM26.0023 43.1143L27.7454 43.2697H27.7454L26.0023 43.1143ZM39.9977 43.1143L38.2546 43.2697V43.2697L39.9977 43.1143ZM38.8161 40.8896H27.1839V44.3896H38.8161V40.8896ZM33 39.577C35.0343 39.577 36.7321 41.0363 37.0965 42.9646L40.5357 42.3147C39.8646 38.7634 36.7471 36.077 33 36.077V39.577ZM28.9035 42.9646C29.2679 41.0363 30.9657 39.577 33 39.577V36.077C29.2529 36.077 26.1354 38.7634 25.4643 42.3147L28.9035 42.9646ZM33 34.9705C28.4184 34.9705 24.6584 38.4802 24.2592 42.9589L27.7454 43.2697C27.9851 40.5801 30.2472 38.4705 33 38.4705V34.9705ZM41.7408 42.9589C41.3416 38.4802 37.5816 34.9705 33 34.9705V38.4705C35.7528 38.4705 38.0149 40.5801 38.2546 43.2697L41.7408 42.9589ZM39.3934 45.4962C40.6643 45.4962 41.8722 44.4334 41.7408 42.9589L38.2546 43.2697C38.1852 42.4909 38.821 41.9962 39.3934 41.9962V45.4962ZM26.6066 45.4962H39.3934V41.9962H26.6066V45.4962ZM24.2592 42.9589C24.1278 44.4334 25.3357 45.4962 26.6066 45.4962V41.9962C27.179 41.9962 27.8148 42.4909 27.7454 43.2697L24.2592 42.9589Z" fill="#1655A2" mask="url(#path-4-inside-1)"/>
<mask id="path-6-inside-2" fill="white">
<path fill-rule="evenodd" clip-rule="evenodd" d="M33 34.5063C34.329 34.5063 35.4063 33.429 35.4063 32.1C35.4063 30.7711 34.329 29.6937 33 29.6937C31.671 29.6937 30.5937 30.7711 30.5937 32.1C30.5937 33.429 31.671 34.5063 33 34.5063ZM33 35.6129C34.9401 35.6129 36.5128 34.0401 36.5128 32.1C36.5128 30.1599 34.9401 28.5872 33 28.5872C31.0599 28.5872 29.4871 30.1599 29.4871 32.1C29.4871 34.0401 31.0599 35.6129 33 35.6129Z"/>
</mask>
<path fill-rule="evenodd" clip-rule="evenodd" d="M33 34.5063C34.329 34.5063 35.4063 33.429 35.4063 32.1C35.4063 30.7711 34.329 29.6937 33 29.6937C31.671 29.6937 30.5937 30.7711 30.5937 32.1C30.5937 33.429 31.671 34.5063 33 34.5063ZM33 35.6129C34.9401 35.6129 36.5128 34.0401 36.5128 32.1C36.5128 30.1599 34.9401 28.5872 33 28.5872C31.0599 28.5872 29.4871 30.1599 29.4871 32.1C29.4871 34.0401 31.0599 35.6129 33 35.6129Z" fill="#071930"/>
<path d="M33.6563 32.1C33.6563 32.4625 33.3625 32.7563 33 32.7563V36.2563C35.2955 36.2563 37.1563 34.3955 37.1563 32.1H33.6563ZM33 31.4437C33.3625 31.4437 33.6563 31.7376 33.6563 32.1H37.1563C37.1563 29.8046 35.2955 27.9437 33 27.9437V31.4437ZM32.3437 32.1C32.3437 31.7376 32.6375 31.4437 33 31.4437V27.9437C30.7045 27.9437 28.8437 29.8046 28.8437 32.1H32.3437ZM33 32.7563C32.6375 32.7563 32.3437 32.4625 32.3437 32.1H28.8437C28.8437 34.3955 30.7045 36.2563 33 36.2563V32.7563ZM34.7628 32.1C34.7628 33.0736 33.9736 33.8629 33 33.8629V37.3629C35.9066 37.3629 38.2628 35.0066 38.2628 32.1H34.7628ZM33 30.3372C33.9736 30.3372 34.7628 31.1264 34.7628 32.1H38.2628C38.2628 29.1934 35.9066 26.8372 33 26.8372V30.3372ZM31.2371 32.1C31.2371 31.1264 32.0264 30.3372 33 30.3372V26.8372C30.0934 26.8372 27.7371 29.1934 27.7371 32.1H31.2371ZM33 33.8629C32.0264 33.8629 31.2371 33.0736 31.2371 32.1H27.7371C27.7371 35.0066 30.0934 37.3629 33 37.3629V33.8629Z" fill="#1655A2" mask="url(#path-6-inside-2)"/>
</svg>
