<svg width="75" height="75" viewBox="0 0 75 75" fill="none" xmlns="http://www.w3.org/2000/svg">
<path d="M13 46.3333H45.3333H51C51.5523 46.3333 52 45.8856 52 45.3333V17.4444H27.5556L22.2739 13.2191C22.0966 13.0773 21.8763 13 21.6492 13H12V45.3333C12 45.8856 12.4477 46.3333 13 46.3333Z" fill="white" stroke="#1655A2" stroke-width="1.75"/>
<path d="M19 54.3333H51.3333H57C57.5523 54.3333 58 53.8856 58 53.3333V25.4444H33.5556L28.2739 21.2191C28.0966 21.0773 27.8763 21 27.6492 21H18V53.3333C18 53.8856 18.4477 54.3333 19 54.3333Z" fill="white" stroke="#1655A2" stroke-width="1.75"/>
<path d="M25 62.3333H29.5556H63C63.5523 62.3333 64 61.8856 64 61.3333V33.4444H39.5556L34.2739 29.2191C34.0966 29.0773 33.8763 29 33.6492 29H24V61.3333C24 61.8856 24.4477 62.3333 25 62.3333Z" fill="white" stroke="#1655A2" stroke-width="1.75"/>
<path d="M39.4101 52.0408H38.703C38.647 52.0408 38.5967 52.0065 38.5761 51.9543L37.8137 50.0152C37.7931 49.963 37.7428 49.9287 37.6868 49.9287H33.7978C33.7419 49.9287 33.6916 49.9629 33.671 50.015L32.9036 51.9545C32.883 52.0065 32.8327 52.0408 32.7768 52.0408H32.1365C32.0395 52.0408 31.9735 51.9422 32.0103 51.8524L35.6108 43.0846C35.6569 42.9723 35.8156 42.9717 35.8627 43.0837L36.1245 43.7083C36.1383 43.7412 36.1386 43.7782 36.1255 43.8115L34.1029 48.9235C34.0674 49.0131 34.1333 49.1103 34.2296 49.1103H38.3251C38.3805 49.1103 38.4304 49.1438 38.4513 49.1951L39.5362 51.8525C39.573 51.9423 39.5069 52.0408 39.4101 52.0408Z" fill="#1655A2"/>
<path d="M56.4292 52.0407H55.7884C55.7326 52.0407 55.6822 52.0066 55.6617 51.9544L54.8944 50.0148C54.8738 49.9628 54.8235 49.9285 54.7676 49.9285H50.8784C50.8223 49.9285 50.772 49.9628 50.7514 50.015L49.9889 51.9541C49.9683 52.0063 49.918 52.0406 49.8619 52.0406H49.1554C49.0585 52.0406 48.9925 51.9422 49.0292 51.8525L50.1144 49.195C50.1355 49.1437 50.1853 49.1102 50.2406 49.1102H54.3358C54.4321 49.1102 54.498 49.0131 54.4626 48.9234L52.4402 43.8112C52.4271 43.778 52.4274 43.741 52.4413 43.7082L52.7028 43.0837C52.7496 42.9717 52.9085 42.9722 52.9547 43.0846L56.5552 51.8523C56.5922 51.9421 56.5262 52.0407 56.4292 52.0407Z" fill="#1655A2"/>
<path d="M50.1979 46.4149V46.9626C50.1979 47.038 50.1369 47.0992 50.0615 47.0992H44.9241C44.8488 47.0992 44.7877 47.1602 44.7877 47.2357V51.904C44.7877 51.9794 44.7267 52.0406 44.6513 52.0406H44.1044C44.0291 52.0406 43.968 51.9795 43.968 51.904V47.2357C43.968 47.1604 43.907 47.0992 43.8316 47.0992H38.694C38.6188 47.0992 38.5576 47.0381 38.5576 46.9626V46.4149C38.5576 46.3395 38.6186 46.2783 38.694 46.2783H50.0615C50.1369 46.2783 50.1979 46.3394 50.1979 46.4149Z" fill="#1655A2"/>
</svg>
