<svg width="75" height="75" viewBox="0 0 75 75" fill="none" xmlns="http://www.w3.org/2000/svg">
<path d="M10 46.6719H65.5839" stroke="#1655A2" stroke-width="2.25" stroke-linecap="round" stroke-linejoin="round"/>
<path d="M29.8516 63.3472C32.2491 60.3198 33.6376 56.6172 33.8218 52.7598" stroke="#1655A2" stroke-width="2.25" stroke-linejoin="round"/>
<path d="M45.732 63.3472C43.3344 60.3198 41.9459 56.6172 41.7617 52.7598" stroke="#1655A2" stroke-width="2.25" stroke-linejoin="round"/>
<path d="M25.8809 63.3472H49.7025" stroke="#1655A2" stroke-width="2.25" stroke-linecap="round" stroke-linejoin="round"/>
<path d="M31.5109 41.781C32.7422 41.781 33.7405 40.7828 33.7405 39.5514C33.7405 38.32 32.7422 37.3218 31.5109 37.3218C30.2795 37.3218 29.2812 38.32 29.2812 39.5514C29.2812 40.7828 30.2795 41.781 31.5109 41.781Z" stroke="#1655A2" stroke-width="2" stroke-miterlimit="10" stroke-linecap="round" stroke-linejoin="round"/>
<path d="M44.1456 41.781C45.377 41.781 46.3752 40.7828 46.3752 39.5514C46.3752 38.32 45.377 37.3218 44.1456 37.3218C42.9142 37.3218 41.916 38.32 41.916 39.5514C41.916 40.7828 42.9142 41.781 44.1456 41.781Z" stroke="#1655A2" stroke-width="2" stroke-miterlimit="10" stroke-linecap="round" stroke-linejoin="round"/>
<path d="M28.3897 23.2009H46.3752L44.8888 34.349H30.0247L27.7951 19.4849H24.8223" stroke="#1655A2" stroke-width="2" stroke-miterlimit="10" stroke-linecap="round" stroke-linejoin="round"/>
<rect x="10" y="13" width="55.5839" height="39.8352" rx="3" stroke="#1655A2" stroke-width="2.25" stroke-linecap="round" stroke-linejoin="round"/>
</svg>
