<svg width="30" height="30" viewBox="0 0 30 30" fill="none" xmlns="http://www.w3.org/2000/svg">
<circle cx="14.5103" cy="15.0953" r="8.28279" stroke="white"/>
<line x1="20.0991" y1="8.97702" x2="24.7832" y2="4.29287" stroke="white" stroke-width="0.75"/>
<path d="M25.844 3.97182C25.844 4.41146 25.4876 4.76786 25.048 4.76786C24.6084 4.76786 24.252 4.41146 24.252 3.97182C24.252 3.53218 24.6084 3.17578 25.048 3.17578C25.4876 3.17578 25.844 3.53218 25.844 3.97182Z" stroke="white" stroke-width="0.75"/>
<line y1="-0.375" x2="6.62439" y2="-0.375" transform="matrix(-0.707107 -0.707107 -0.707107 0.707107 8.65479 9.24219)" stroke="white" stroke-width="0.75"/>
<path d="M3.17501 3.97182C3.17501 4.41146 3.53141 4.76786 3.97105 4.76786C4.41069 4.76786 4.76709 4.41146 4.76709 3.97182C4.76709 3.53218 4.41069 3.17578 3.97105 3.17578C3.53141 3.17578 3.17501 3.53218 3.17501 3.97182Z" stroke="white" stroke-width="0.75"/>
<path d="M14.51 6.7177V4.55859" stroke="white" stroke-width="0.75"/>
<path d="M15.3069 4.55776C15.3069 4.9974 14.9505 5.3538 14.5109 5.3538C14.0712 5.3538 13.7148 4.9974 13.7148 4.55776C13.7148 4.11812 14.0712 3.76172 14.5109 3.76172C14.9505 3.76172 15.3069 4.11812 15.3069 4.55776Z" stroke="white" stroke-width="0.75"/>
<line y1="-0.375" x2="6.6244" y2="-0.375" transform="matrix(0.707107 0.707107 0.707107 -0.707107 20.3643 21.5352)" stroke="white" stroke-width="0.75"/>
<path d="M25.844 26.8055C25.844 26.3659 25.4876 26.0095 25.048 26.0095C24.6084 26.0095 24.252 26.3659 24.252 26.8055C24.252 27.2452 24.6084 27.6016 25.048 27.6016C25.4876 27.6016 25.844 27.2452 25.844 26.8055Z" stroke="white" stroke-width="0.75"/>
<line x1="8.91995" y1="21.8003" x2="4.2358" y2="26.4845" stroke="white" stroke-width="0.75"/>
<path d="M3.17501 26.8055C3.17501 26.3659 3.53141 26.0095 3.97105 26.0095C4.41069 26.0095 4.76709 26.3659 4.76709 26.8055C4.76709 27.2452 4.41069 27.6016 3.97105 27.6016C3.53141 27.6016 3.17501 27.2452 3.17501 26.8055Z" stroke="white" stroke-width="0.75"/>
<path d="M14.51 23.4737V25.6328" stroke="white" stroke-width="0.75"/>
<path d="M15.3069 25.6336C15.3069 25.194 14.9505 24.8376 14.5109 24.8376C14.0712 24.8376 13.7148 25.194 13.7148 25.6336C13.7148 26.0733 14.0712 26.4297 14.5109 26.4297C14.9505 26.4297 15.3069 26.0733 15.3069 25.6336Z" stroke="white" stroke-width="0.75"/>
<path d="M26.4251 14.7179C26.4251 15.1576 26.0687 15.514 25.629 15.514C25.1894 15.514 24.833 15.1576 24.833 14.7179C24.833 14.2783 25.1894 13.9219 25.629 13.9219C26.0687 13.9219 26.4251 14.2783 26.4251 14.7179Z" stroke="white" stroke-width="0.75"/>
<line y1="-0.375" x2="2.34208" y2="-0.375" transform="matrix(-1 0 0 1 6.31116 15.0977)" stroke="white" stroke-width="0.75"/>
<path d="M3.17648 14.7179C3.17648 15.1576 3.53288 15.514 3.97252 15.514C4.41216 15.514 4.76855 15.1576 4.76855 14.7179C4.76855 14.2783 4.41216 13.9219 3.97252 13.9219C3.53288 13.9219 3.17648 14.2783 3.17648 14.7179Z" stroke="white" stroke-width="0.75"/>
<line x1="22.7089" y1="14.7227" x2="25.0509" y2="14.7227" stroke="white" stroke-width="0.75"/>
<path d="M17.6407 18.3989C18.1401 18.3989 18.545 17.9895 18.545 17.4846C18.545 16.9797 18.1401 16.5703 17.6407 16.5703C17.1412 16.5703 16.7363 16.9797 16.7363 17.4846C16.7363 17.9895 17.1412 18.3989 17.6407 18.3989Z" stroke="white" stroke-width="0.75" stroke-miterlimit="10" stroke-linecap="round" stroke-linejoin="round"/>
<path d="M19.4493 16.1139V17.4854H18.5449C18.5449 16.9825 18.1425 16.5711 17.6406 16.5711C17.1432 16.5711 16.7363 16.9825 16.7363 17.4854H15.8319V13.3711H16.2841C17.0347 13.3711 18.0928 15.1997 18.0928 15.1997H18.5449C19.0423 15.1997 19.4493 15.6111 19.4493 16.1139Z" stroke="white" stroke-width="0.75" stroke-miterlimit="10" stroke-linecap="round" stroke-linejoin="round"/>
<path d="M12.6668 18.3989C13.1663 18.3989 13.5711 17.9895 13.5711 17.4846C13.5711 16.9797 13.1663 16.5703 12.6668 16.5703C12.1673 16.5703 11.7625 16.9797 11.7625 17.4846C11.7625 17.9895 12.1673 18.3989 12.6668 18.3989Z" stroke="white" stroke-width="0.75" stroke-miterlimit="10" stroke-linecap="round" stroke-linejoin="round"/>
<path d="M10.858 15.6216V17.4857H11.7624C11.7624 16.9828 12.1693 16.5714 12.6667 16.5714C13.1686 16.5714 13.5711 16.9828 13.5711 17.4857H15.8319V12.4571C15.8319 12.2057 15.6285 12 15.3798 12H11.3102" stroke="white" stroke-width="0.75" stroke-miterlimit="10" stroke-linecap="round" stroke-linejoin="round"/>
<path d="M9.20007 13.1172H11.9634" stroke="white" stroke-width="0.75" stroke-miterlimit="10" stroke-linecap="round" stroke-linejoin="round"/>
<path d="M10.3054 14.2344H12.516" stroke="white" stroke-width="0.75" stroke-miterlimit="10" stroke-linecap="round" stroke-linejoin="round"/>
</svg>
