<svg width="30" height="30" viewBox="0 0 30 30" fill="none" xmlns="http://www.w3.org/2000/svg">
<path d="M4 18.668H26.2336" stroke="white" stroke-linecap="round" stroke-linejoin="round"/>
<path d="M11.9406 25.3365C12.8996 24.1256 13.455 22.6445 13.5287 21.1016" stroke="white" stroke-linejoin="round"/>
<path d="M18.2931 25.3365C17.334 24.1256 16.7786 22.6445 16.705 21.1016" stroke="white" stroke-linejoin="round"/>
<path d="M10.3524 25.3398H19.8811" stroke="white" stroke-linecap="round" stroke-linejoin="round"/>
<path d="M12.6045 16.7095C13.097 16.7095 13.4963 16.3102 13.4963 15.8176C13.4963 15.3251 13.097 14.9258 12.6045 14.9258C12.1119 14.9258 11.7126 15.3251 11.7126 15.8176C11.7126 16.3102 12.1119 16.7095 12.6045 16.7095Z" stroke="white" stroke-miterlimit="10" stroke-linecap="round" stroke-linejoin="round"/>
<path d="M17.6583 16.7095C18.1509 16.7095 18.5502 16.3102 18.5502 15.8176C18.5502 15.3251 18.1509 14.9258 17.6583 14.9258C17.1658 14.9258 16.7665 15.3251 16.7665 15.8176C16.7665 16.3102 17.1658 16.7095 17.6583 16.7095Z" stroke="white" stroke-miterlimit="10" stroke-linecap="round" stroke-linejoin="round"/>
<path d="M11.3559 9.27938H18.5501L17.9556 13.7386H12.0099L11.1181 7.79297H9.92896" stroke="white" stroke-miterlimit="10" stroke-linecap="round" stroke-linejoin="round"/>
<rect x="4" y="5.19922" width="22.2336" height="15.9341" rx="3" stroke="white" stroke-linecap="round" stroke-linejoin="round"/>
</svg>
