<svg width="75" height="75" viewBox="0 0 75 75" fill="none" xmlns="http://www.w3.org/2000/svg">
<path d="M13 46.3333H45.3333H51C51.5523 46.3333 52 45.8856 52 45.3333V17.4444H27.5556L22.2739 13.2191C22.0966 13.0773 21.8763 13 21.6492 13H12V45.3333C12 45.8856 12.4477 46.3333 13 46.3333Z" fill="white" stroke="#1655A2" stroke-width="1.75"/>
<path d="M19 54.3333H51.3333H57C57.5523 54.3333 58 53.8856 58 53.3333V25.4444H33.5556L28.2739 21.2191C28.0966 21.0773 27.8763 21 27.6492 21H18V53.3333C18 53.8856 18.4477 54.3333 19 54.3333Z" fill="white" stroke="#1655A2" stroke-width="1.75"/>
<path d="M25 62.3333H29.5556H63C63.5523 62.3333 64 61.8856 64 61.3333V33.4444H39.5556L34.2739 29.2191C34.0966 29.0773 33.8763 29 33.6492 29H24V61.3333C24 61.8856 24.4477 62.3333 25 62.3333Z" fill="white" stroke="#1655A2" stroke-width="1.75"/>
<mask id="path-5-inside-1" fill="white">
<path fill-rule="evenodd" clip-rule="evenodd" d="M38.1839 54.6394H49.8161C49.2983 51.8996 46.8907 49.8268 44 49.8268C41.1093 49.8268 38.7017 51.8996 38.1839 54.6394ZM37.0023 55.1141C37.3218 51.5299 40.3328 48.7202 44 48.7202C47.6672 48.7202 50.6782 51.5299 50.9977 55.1141C51.0287 55.4619 50.7426 55.7459 50.3934 55.7459H37.6066C37.2574 55.7459 36.9713 55.4619 37.0023 55.1141Z"/>
</mask>
<path fill-rule="evenodd" clip-rule="evenodd" d="M38.1839 54.6394H49.8161C49.2983 51.8996 46.8907 49.8268 44 49.8268C41.1093 49.8268 38.7017 51.8996 38.1839 54.6394ZM37.0023 55.1141C37.3218 51.5299 40.3328 48.7202 44 48.7202C47.6672 48.7202 50.6782 51.5299 50.9977 55.1141C51.0287 55.4619 50.7426 55.7459 50.3934 55.7459H37.6066C37.2574 55.7459 36.9713 55.4619 37.0023 55.1141Z" fill="#071930"/>
<path d="M49.8161 54.6394V56.3894H51.9278L51.5357 54.3144L49.8161 54.6394ZM38.1839 54.6394L36.4643 54.3144L36.0722 56.3894H38.1839V54.6394ZM37.0023 55.1141L38.7454 55.2694H38.7454L37.0023 55.1141ZM50.9977 55.1141L49.2546 55.2694V55.2694L50.9977 55.1141ZM49.8161 52.8894H38.1839V56.3894H49.8161V52.8894ZM44 51.5768C46.0343 51.5768 47.7321 53.0361 48.0965 54.9643L51.5357 54.3144C50.8646 50.7632 47.7471 48.0768 44 48.0768V51.5768ZM39.9035 54.9643C40.2679 53.0361 41.9657 51.5768 44 51.5768V48.0768C40.2529 48.0768 37.1354 50.7632 36.4643 54.3144L39.9035 54.9643ZM44 46.9702C39.4184 46.9702 35.6584 50.4799 35.2592 54.9587L38.7454 55.2694C38.9851 52.5799 41.2472 50.4702 44 50.4702V46.9702ZM52.7408 54.9587C52.3416 50.4799 48.5816 46.9702 44 46.9702V50.4702C46.7528 50.4702 49.0149 52.5799 49.2546 55.2694L52.7408 54.9587ZM50.3934 57.4959C51.6643 57.4959 52.8722 56.4332 52.7408 54.9587L49.2546 55.2694C49.1852 54.4906 49.821 53.9959 50.3934 53.9959V57.4959ZM37.6066 57.4959H50.3934V53.9959H37.6066V57.4959ZM35.2592 54.9587C35.1278 56.4332 36.3357 57.4959 37.6066 57.4959V53.9959C38.179 53.9959 38.8148 54.4906 38.7454 55.2694L35.2592 54.9587Z" fill="#1655A2" mask="url(#path-5-inside-1)"/>
<mask id="path-7-inside-2" fill="white">
<path fill-rule="evenodd" clip-rule="evenodd" d="M44.0002 46.5061C45.3291 46.5061 46.4065 45.4287 46.4065 44.0998C46.4065 42.7708 45.3291 41.6935 44.0002 41.6935C42.6712 41.6935 41.5939 42.7708 41.5939 44.0998C41.5939 45.4287 42.6712 46.5061 44.0002 46.5061ZM44.0002 47.6126C45.9403 47.6126 47.513 46.0399 47.513 44.0998C47.513 42.1597 45.9403 40.5869 44.0002 40.5869C42.0601 40.5869 40.4873 42.1597 40.4873 44.0998C40.4873 46.0399 42.0601 47.6126 44.0002 47.6126Z"/>
</mask>
<path fill-rule="evenodd" clip-rule="evenodd" d="M44.0002 46.5061C45.3291 46.5061 46.4065 45.4287 46.4065 44.0998C46.4065 42.7708 45.3291 41.6935 44.0002 41.6935C42.6712 41.6935 41.5939 42.7708 41.5939 44.0998C41.5939 45.4287 42.6712 46.5061 44.0002 46.5061ZM44.0002 47.6126C45.9403 47.6126 47.513 46.0399 47.513 44.0998C47.513 42.1597 45.9403 40.5869 44.0002 40.5869C42.0601 40.5869 40.4873 42.1597 40.4873 44.0998C40.4873 46.0399 42.0601 47.6126 44.0002 47.6126Z" fill="#071930"/>
<path d="M44.6565 44.0998C44.6565 44.4622 44.3626 44.7561 44.0002 44.7561V48.2561C46.2956 48.2561 48.1565 46.3952 48.1565 44.0998H44.6565ZM44.0002 43.4435C44.3626 43.4435 44.6565 43.7373 44.6565 44.0998H48.1565C48.1565 41.8043 46.2956 39.9435 44.0002 39.9435V43.4435ZM43.3439 44.0998C43.3439 43.7373 43.6377 43.4435 44.0002 43.4435V39.9435C41.7047 39.9435 39.8439 41.8043 39.8439 44.0998H43.3439ZM44.0002 44.7561C43.6377 44.7561 43.3439 44.4622 43.3439 44.0998H39.8439C39.8439 46.3952 41.7047 48.2561 44.0002 48.2561V44.7561ZM45.763 44.0998C45.763 45.0734 44.9738 45.8626 44.0002 45.8626V49.3626C46.9068 49.3626 49.263 47.0064 49.263 44.0998H45.763ZM44.0002 42.3369C44.9738 42.3369 45.763 43.1262 45.763 44.0998H49.263C49.263 41.1932 46.9068 38.8369 44.0002 38.8369V42.3369ZM42.2373 44.0998C42.2373 43.1262 43.0266 42.3369 44.0002 42.3369V38.8369C41.0936 38.8369 38.7373 41.1932 38.7373 44.0998H42.2373ZM44.0002 45.8626C43.0266 45.8626 42.2373 45.0734 42.2373 44.0998H38.7373C38.7373 47.0064 41.0936 49.3626 44.0002 49.3626V45.8626Z" fill="#1655A2" mask="url(#path-7-inside-2)"/>
</svg>
