<svg width="16" height="16" viewBox="0 0 16 16" fill="none" xmlns="http://www.w3.org/2000/svg">
<path d="M14.2293 14.1182L9.85931 9.48074C10.5374 8.55038 10.9043 7.41289 10.9043 6.21646C10.9043 4.78431 10.3776 3.44146 9.42517 2.42896C8.47277 1.41646 7.20402 0.859314 5.85618 0.859314C4.50835 0.859314 3.2396 1.41824 2.28719 2.42896C1.33311 3.43967 0.808105 4.78431 0.808105 6.21646C0.808105 7.64681 1.33479 8.99324 2.28719 10.004C3.2396 11.0165 4.50666 11.5736 5.85618 11.5736C6.98359 11.5736 8.05378 11.1843 8.93046 10.4665L13.3004 15.1022C13.3132 15.1158 13.3284 15.1266 13.3452 15.1339C13.3619 15.1413 13.3799 15.1451 13.398 15.1451C13.4161 15.1451 13.4341 15.1413 13.4508 15.1339C13.4676 15.1266 13.4828 15.1158 13.4956 15.1022L14.2293 14.3254C14.2421 14.3118 14.2523 14.2956 14.2592 14.2779C14.2661 14.2601 14.2697 14.241 14.2697 14.2218C14.2697 14.2026 14.2661 14.1835 14.2592 14.1658C14.2523 14.148 14.2421 14.1318 14.2293 14.1182ZM8.52157 9.04503C7.80811 9.80039 6.86243 10.2165 5.85618 10.2165C4.84993 10.2165 3.90426 9.80039 3.1908 9.04503C2.47902 8.28789 2.08695 7.28431 2.08695 6.21646C2.08695 5.1486 2.47902 4.14324 3.1908 3.38789C3.90426 2.63253 4.84993 2.21646 5.85618 2.21646C6.86243 2.21646 7.80979 2.63074 8.52157 3.38789C9.23335 4.14503 9.62541 5.1486 9.62541 6.21646C9.62541 7.28431 9.23335 8.28967 8.52157 9.04503Z" fill="black" fill-opacity="0.85"/>
</svg>
