<svg width="27" height="39" viewBox="0 0 27 39" fill="none" xmlns="http://www.w3.org/2000/svg">
<path d="M25.2073 6.33206C24.41 5.74272 23.422 5.30939 22.2433 5.03206C21.0993 4.72006 19.8166 4.56406 18.3953 4.56406C16.142 4.56406 14.1833 5.25739 12.5193 6.64406C10.89 7.99606 9.69398 10.0761 8.93131 12.8841H23.2833L22.3993 16.3681H8.30731C8.23798 16.9574 8.18598 17.5641 8.15131 18.1881C8.11665 18.8121 8.09931 19.4707 8.09931 20.1641C8.09931 20.6147 8.09931 21.0481 8.09931 21.4641C8.09931 21.8801 8.11665 22.2787 8.15131 22.6601H20.7353L19.8513 26.0401H8.46331C8.91398 28.9521 9.81531 31.1361 11.1673 32.5921C12.554 34.0481 14.5473 34.7761 17.1473 34.7761C18.6033 34.7761 19.8513 34.4987 20.8913 33.9441C21.966 33.3547 22.8846 32.6094 23.6473 31.7081L26.1953 34.2561C25.294 35.4694 24.0286 36.5094 22.3993 37.3761C20.77 38.2081 18.95 38.6241 16.9393 38.6241C13.23 38.6241 10.3006 37.5667 8.15131 35.4521C6.00198 33.3027 4.59798 30.1654 3.93931 26.0401H0.195312L1.18331 22.6601H3.57531C3.54065 22.2441 3.52331 21.8281 3.52331 21.4121C3.52331 20.9614 3.52331 20.4934 3.52331 20.0081C3.52331 18.7254 3.57531 17.5121 3.67931 16.3681H0.247312L1.33931 12.8841H4.30331C4.78865 10.8041 5.48198 9.00139 6.38331 7.47606C7.28465 5.91606 8.35931 4.63339 9.60731 3.62806C10.8553 2.58806 12.2246 1.82539 13.7153 1.34006C15.2406 0.820059 16.87 0.560059 18.6033 0.560059C20.0593 0.560059 21.4806 0.733392 22.8673 1.08006C24.254 1.42672 25.398 1.87739 26.2993 2.43206L25.2073 6.33206Z" fill="#1655A2"/>
</svg>
