<svg width="56" height="49" viewBox="0 0 56 49" fill="none" xmlns="http://www.w3.org/2000/svg">
<path d="M0 7H8.54958V34.9205" stroke="#448DE5" stroke-width="3"/>
<path d="M14.3791 40.9907C14.3791 44.1762 11.7784 46.7743 8.55087 46.7743C5.32339 46.7743 2.72266 44.1762 2.72266 40.9907C2.72266 37.8051 5.32339 35.207 8.55087 35.207C11.7784 35.207 14.3791 37.8051 14.3791 40.9907Z" stroke="#448DE5" stroke-width="3"/>
<path d="M13.6953 41.8438L47.817 44.1329" stroke="#448DE5" stroke-width="3"/>
<rect x="34.6" y="21.6" width="15.8" height="12.8" rx="0.9" stroke="#448DE5" stroke-width="1.2"/>
<line x1="38.6" y1="24.4" x2="46.4" y2="24.4" stroke="#448DE5" stroke-width="1.2" stroke-linecap="round" stroke-linejoin="round"/>
<rect x="15.6" y="21.6" width="15.8" height="12.8" rx="0.9" stroke="#448DE5" stroke-width="1.2"/>
<line x1="19.6" y1="24.4" x2="27.4" y2="24.4" stroke="#448DE5" stroke-width="1.2" stroke-linecap="round" stroke-linejoin="round"/>
<rect x="15.6" y="5.6" width="15.8" height="12.8" rx="0.9" stroke="#448DE5" stroke-width="1.2"/>
<line x1="19.6" y1="8.4" x2="27.4" y2="8.4" stroke="#448DE5" stroke-width="1.2" stroke-linecap="round" stroke-linejoin="round"/>
<rect x="39.3003" y="0.743107" width="15.8" height="12.8" rx="0.9" transform="rotate(16.135 39.3003 0.743107)" stroke="#448DE5" stroke-width="1.2"/>
<line x1="42.3603" y1="4.54741" x2="49.8531" y2="6.71504" stroke="#448DE5" stroke-width="1.2" stroke-linecap="round" stroke-linejoin="round"/>
</svg>
