<svg width="17" height="20" viewBox="0 0 17 20" fill="none" xmlns="http://www.w3.org/2000/svg">
<path d="M15.2966 19.5H2.30495C1.75036 19.5 1.30078 19.0504 1.30078 18.4958V1.50417C1.30078 0.949581 1.75036 0.5 2.30495 0.5H10.6777C10.9441 0.5 11.1995 0.605796 11.3878 0.794114L16.0067 5.41299C16.195 5.60131 16.3008 5.85672 16.3008 6.12305V18.4958C16.3008 19.0504 15.8512 19.5 15.2966 19.5Z" stroke="white"/>
<path d="M15.8008 5.5H12.0529C11.6375 5.5 11.3008 5.16328 11.3008 4.74792V1" stroke="white"/>
<line x1="13.4078" y1="9.77109" x2="13.4078" y2="14.3096" stroke="white" stroke-width="1.12812" stroke-linecap="round"/>
<line x1="11.2828" y1="9.77109" x2="11.2828" y2="14.3096" stroke="white" stroke-width="1.12812" stroke-linecap="round"/>
<line x1="9.15781" y1="9.77109" x2="9.15781" y2="14.3096" stroke="white" stroke-width="1.12812" stroke-linecap="round"/>
<line x1="7.03281" y1="9.77109" x2="7.03281" y2="14.3096" stroke="white" stroke-width="1.12812" stroke-linecap="round"/>
<line x1="4.90391" y1="9.77109" x2="4.90391" y2="14.3096" stroke="white" stroke-width="1.12812" stroke-linecap="round"/>
<line x1="13.4039" y1="16.857" x2="13.4039" y2="16.4372" stroke="white" stroke-width="1.12812" stroke-linecap="round"/>
<line x1="11.2789" y1="16.857" x2="11.2789" y2="16.4372" stroke="white" stroke-width="1.12812" stroke-linecap="round"/>
<line x1="9.15391" y1="16.857" x2="9.15391" y2="16.4372" stroke="white" stroke-width="1.12812" stroke-linecap="round"/>
<line x1="7.02891" y1="16.857" x2="7.02891" y2="16.4372" stroke="white" stroke-width="1.12812" stroke-linecap="round"/>
<line x1="4.90391" y1="16.857" x2="4.90391" y2="16.4372" stroke="white" stroke-width="1.12812" stroke-linecap="round"/>
</svg>
