<svg width="18" height="18" viewBox="0 0 18 18" fill="none" xmlns="http://www.w3.org/2000/svg">
<path d="M17.25 2.25H8.25V3.75H17.25C17.664 3.75 18 3.414 18 3C18 2.586 17.664 2.25 17.25 2.25Z" fill="#1655A2"/>
<path d="M0.75 3.75H2.25V5.25C2.25 5.664 2.586 6 3 6H6C6.414 6 6.75 5.664 6.75 5.25V0.75C6.75 0.336 6.414 0 6 0H3C2.586 0 2.25 0.336 2.25 0.75V2.25H0.75C0.336 2.25 0 2.586 0 3C0 3.414 0.336 3.75 0.75 3.75Z" fill="#1655A2"/>
<path d="M17.25 8.25H15.75V9.75H17.25C17.664 9.75 18 9.414 18 9C18 8.586 17.664 8.25 17.25 8.25Z" fill="#1655A2"/>
<path d="M0.75 9.75H9.75V11.25C9.75 11.664 10.086 12 10.5 12H13.5C13.914 12 14.25 11.664 14.25 11.25V6.75C14.25 6.336 13.914 6 13.5 6H10.5C10.086 6 9.75 6.336 9.75 6.75V8.25H0.75C0.336 8.25 0 8.586 0 9C0 9.414 0.336 9.75 0.75 9.75Z" fill="#1655A2"/>
<path d="M17.25 14.25H8.25V15.75H17.25C17.664 15.75 18 15.414 18 15C18 14.586 17.664 14.25 17.25 14.25Z" fill="#1655A2"/>
<path d="M6 12H3C2.586 12 2.25 12.336 2.25 12.75V14.25H0.75C0.336 14.25 0 14.586 0 15C0 15.414 0.336 15.75 0.75 15.75H2.25V17.25C2.25 17.664 2.586 18 3 18H6C6.414 18 6.75 17.664 6.75 17.25V12.75C6.75 12.336 6.414 12 6 12Z" fill="#1655A2"/>
</svg>
