<svg width="60" height="57" viewBox="0 0 60 57" fill="none" xmlns="http://www.w3.org/2000/svg">
<mask id="path-1-inside-1" fill="white">
<rect x="28.5474" y="38.7428" width="18.1712" height="18.1712" rx="1.5"/>
</mask>
<rect x="28.5474" y="38.7428" width="18.1712" height="18.1712" rx="1.5" stroke="#646464" stroke-width="4" mask="url(#path-1-inside-1)"/>
<mask id="path-2-inside-2" fill="white">
<rect x="12.215" y="38.7428" width="18.1712" height="18.1712" rx="1.5"/>
</mask>
<rect x="12.215" y="38.7428" width="18.1712" height="18.1712" rx="1.5" stroke="#646464" stroke-width="4" mask="url(#path-2-inside-2)"/>
<mask id="path-3-inside-3" fill="white">
<rect x="20.1819" y="22.4105" width="18.1712" height="18.1683" rx="1.5"/>
</mask>
<rect x="20.1819" y="22.4105" width="18.1712" height="18.1683" rx="1.5" stroke="#646464" stroke-width="4" mask="url(#path-3-inside-3)"/>
<path d="M56.087 50.7381C55.741 50.7381 55.4093 50.6007 55.1646 50.3561C54.92 50.1115 54.7826 49.7797 54.7826 49.4338V16.8251H5.21739V49.4338C5.21739 49.7797 5.07997 50.1115 4.83536 50.3561C4.59075 50.6007 4.25898 50.7381 3.91305 50.7381C3.56711 50.7381 3.23535 50.6007 2.99073 50.3561C2.74612 50.1115 2.6087 49.7797 2.6087 49.4338V16.8251C1.17131 16.8251 3.43185e-06 15.6538 3.43185e-06 14.2164V11.2816C-0.000903634 10.7211 0.17802 10.1751 0.510474 9.72387C0.842928 9.27262 1.31138 8.93992 1.84696 8.77467L28.8052 0.184236C29.5775 -0.061412 30.4069 -0.061412 31.1791 0.184236L58.1974 8.76424C59.28 9.12424 60 10.1208 60 11.2477V14.2164C60 15.6538 58.8313 16.8251 57.3913 16.8251V49.4338C57.3913 49.7797 57.2539 50.1115 57.0093 50.3561C56.7647 50.6007 56.4329 50.7381 56.087 50.7381ZM29.9922 2.60771C29.8584 2.60771 29.7255 2.62884 29.5983 2.67032L2.62435 11.266L2.6087 14.2164H57.3913V11.2451L30.3887 2.67032C30.2606 2.62903 30.1268 2.60791 29.9922 2.60771Z" fill="#646464"/>
<line x1="24.75" y1="27.25" x2="33.25" y2="27.25" stroke="#646464" stroke-width="1.5" stroke-linecap="round" stroke-linejoin="round"/>
<line x1="16.75" y1="44.25" x2="25.25" y2="44.25" stroke="#646464" stroke-width="1.5" stroke-linecap="round" stroke-linejoin="round"/>
<line x1="33.75" y1="44.25" x2="42.25" y2="44.25" stroke="#646464" stroke-width="1.5" stroke-linecap="round" stroke-linejoin="round"/>
</svg>
