<svg width="65" height="52" viewBox="0 0 65 52" fill="none" xmlns="http://www.w3.org/2000/svg">
<path d="M26 6.10913C27.2881 7.40889 28.8322 8.44264 30.54 9.14865C32.2477 9.85466 34.0841 10.2184 35.9395 10.2183C37.8204 10.2196 39.6817 9.84695 41.4093 9.12329" stroke="#646464" stroke-width="1.7" stroke-linecap="round" stroke-linejoin="round"/>
<path d="M33.2183 18.4366C37.7571 18.4366 41.4366 14.7571 41.4366 10.2183C41.4366 5.67946 37.7571 2 33.2183 2C28.6795 2 25 5.67946 25 10.2183C25 14.7571 28.6795 18.4366 33.2183 18.4366Z" stroke="#646464" stroke-width="2.25" stroke-linecap="round" stroke-linejoin="round"/>
<path d="M63.6372 50V38.9181C63.6372 37.8283 63.1377 36.7831 62.2485 36.0125C61.3594 35.2419 60.1534 34.809 58.8959 34.809H6.74133C5.48385 34.809 4.27787 35.2419 3.3887 36.0125C2.49953 36.7831 2 37.8283 2 38.9181V50" stroke="#646464" stroke-width="2.25" stroke-linecap="round" stroke-linejoin="round"/>
<line x1="3.1" y1="40.9" x2="62.9" y2="40.9" stroke="#646464" stroke-width="2.2" stroke-linecap="round"/>
<path d="M16.3219 33.9315V31.8499C16.3187 31.2764 16.4232 30.7097 16.6271 30.1942C16.8311 29.6786 17.129 29.2282 17.4977 28.8782C19.5285 26.9679 24.3689 23.5802 33.1183 23.5802C41.8676 23.5802 46.7004 26.9679 48.7389 28.8782C49.1075 29.2282 49.4055 29.6786 49.6094 30.1942C49.8134 30.7097 49.9179 31.2764 49.9146 31.8499V33.9315" stroke="#646464" stroke-width="2.25" stroke-linecap="round" stroke-linejoin="round"/>
<path d="M28.7095 24.6003L33.0238 33.5764C33.1069 33.7494 33.2174 33.8459 33.3323 33.8459C33.4472 33.8459 33.5576 33.7494 33.6408 33.5764L37.9551 24.6003" stroke="#646464" stroke-width="1.7" stroke-linecap="round" stroke-linejoin="round"/>
</svg>
