<svg width="16" height="20" viewBox="0 0 16 20" fill="none" xmlns="http://www.w3.org/2000/svg">
<path d="M14 19.25H2C1.30964 19.25 0.75 18.6904 0.75 18V2C0.75 1.30964 1.30964 0.75 2 0.75H9.67157C10.0031 0.75 10.321 0.881697 10.5555 1.11612L14.8839 5.44454C15.1183 5.67896 15.25 5.99691 15.25 6.32843V18C15.25 18.6904 14.6904 19.25 14 19.25Z" stroke="white" stroke-width="1.5"/>
<path d="M15 5.5H11.5C10.9477 5.5 10.5 5.05228 10.5 4.5V1" stroke="white" stroke-width="1.5"/>
<line x1="8.75" y1="16.25" x2="12.25" y2="16.25" stroke="white" stroke-width="1.5" stroke-linecap="round"/>
<line x1="8.75" y1="12.25" x2="12.25" y2="12.25" stroke="white" stroke-width="1.5" stroke-linecap="round"/>
<path d="M5.41451 3.89326C5.65435 3.89326 5.88765 3.93469 6.11441 4.01754C6.34553 4.09604 6.54394 4.2225 6.70965 4.39693L6.23869 4.8548C6.13839 4.72834 6.01629 4.63022 5.87239 4.56045C5.73285 4.48632 5.58022 4.44707 5.41451 4.44271V5.98641L5.40143 5.99295C5.58894 6.04528 5.76773 6.10415 5.9378 6.16956C6.11223 6.23061 6.26486 6.31129 6.39568 6.41158C6.5265 6.50752 6.63116 6.62962 6.70965 6.77788C6.78814 6.92615 6.82739 7.11148 6.82739 7.33388C6.82739 7.53447 6.78814 7.71544 6.70965 7.87679C6.63552 8.03814 6.53304 8.17768 6.40222 8.29542C6.27576 8.4088 6.12531 8.49819 5.95088 8.5636C5.78081 8.62901 5.60203 8.66826 5.41451 8.68134V9.1523H5.06129V8.68134C4.77349 8.68134 4.5053 8.63556 4.25674 8.54398C4.01254 8.44804 3.80104 8.28452 3.62225 8.0534L4.12592 7.60206C4.22621 7.76777 4.3614 7.89641 4.53147 7.98799C4.70153 8.0752 4.87814 8.12317 5.06129 8.13189V6.52278C4.8825 6.47917 4.71244 6.42467 4.55109 6.35925C4.3941 6.28948 4.25238 6.20227 4.12592 6.09761C4.00382 5.99295 3.9057 5.86649 3.83157 5.71823C3.7618 5.56996 3.72691 5.39117 3.72691 5.18186C3.72691 4.99435 3.76398 4.82646 3.83811 4.67819C3.91224 4.52557 4.01036 4.39475 4.13246 4.28573C4.25456 4.17235 4.39628 4.08295 4.55763 4.01754C4.71898 3.94777 4.88687 3.90634 5.06129 3.89326V3.4223H5.41451V3.89326ZM5.06129 4.44271C4.85198 4.4776 4.68191 4.55827 4.55109 4.68473C4.42027 4.80683 4.35486 4.97254 4.35486 5.18186C4.35486 5.28651 4.37448 5.37809 4.41373 5.45658C4.45297 5.53072 4.5053 5.59613 4.57071 5.65282C4.63612 5.70951 4.71026 5.75747 4.79311 5.79672C4.88032 5.83597 4.96972 5.86867 5.06129 5.89484V4.44271ZM5.41451 8.13189C5.52353 8.11881 5.62383 8.09265 5.7154 8.0534C5.81134 8.01415 5.89419 7.96182 5.96397 7.89641C6.0381 7.831 6.09479 7.75469 6.13403 7.66747C6.17764 7.5759 6.19945 7.47342 6.19945 7.36004C6.19945 7.24666 6.17546 7.15073 6.12749 7.07223C6.08389 6.98938 6.02502 6.91961 5.95088 6.86292C5.88111 6.80623 5.79826 6.75826 5.70232 6.71901C5.60639 6.67977 5.51045 6.64488 5.41451 6.61436V8.13189Z" fill="white"/>
<path d="M5 16.5L6.44338 14H3.55662L5 16.5ZM4.75 11V14.25H5.25V11H4.75Z" fill="white"/>
</svg>
