<svg width="31" height="24" viewBox="0 0 31 24" fill="none" xmlns="http://www.w3.org/2000/svg">
<path d="M1 10.7227H7.44121" stroke="white" stroke-width="1.5" stroke-miterlimit="10" stroke-linecap="round" stroke-linejoin="round"/>
<path d="M3.57812 13.2617H8.73109" stroke="white" stroke-width="1.5" stroke-miterlimit="10" stroke-linecap="round" stroke-linejoin="round"/>
<path d="M20.6744 22.7301C21.8387 22.7301 22.7825 21.7997 22.7825 20.6521C22.7825 19.5045 21.8387 18.5742 20.6744 18.5742C19.5102 18.5742 18.5664 19.5045 18.5664 20.6521C18.5664 21.7997 19.5102 22.7301 20.6744 22.7301Z" stroke="white" stroke-width="1.5" stroke-miterlimit="10" stroke-linecap="round" stroke-linejoin="round"/>
<path d="M24.8892 17.5345V20.6514H22.7811C22.7811 19.5085 21.843 18.5735 20.6731 18.5735C19.5137 18.5735 18.5651 19.5085 18.5651 20.6514H16.457V11.3008H17.511C19.2607 11.3008 21.7271 15.4566 21.7271 15.4566H22.7811C23.9405 15.4566 24.8892 16.3917 24.8892 17.5345Z" stroke="white" stroke-width="1.5" stroke-miterlimit="10" stroke-linecap="round" stroke-linejoin="round"/>
<path d="M9.08069 22.7301C10.2449 22.7301 11.1887 21.7997 11.1887 20.6521C11.1887 19.5045 10.2449 18.5742 9.08069 18.5742C7.91645 18.5742 6.97266 19.5045 6.97266 20.6521C6.97266 21.7997 7.91645 22.7301 9.08069 22.7301Z" stroke="white" stroke-width="1.5" stroke-miterlimit="10" stroke-linecap="round" stroke-linejoin="round"/>
<path d="M4.86328 16.4145V20.6511H6.97131C6.97131 19.5082 7.91993 18.5732 9.07934 18.5732C10.2493 18.5732 11.1874 19.5082 11.1874 20.6511H16.4574V9.22255C16.4574 8.65112 15.9831 8.18359 15.4034 8.18359H5.9173" stroke="white" stroke-width="1.5" stroke-miterlimit="10" stroke-linecap="round" stroke-linejoin="round"/>
<path d="M16.8062 6.15363L15.5469 4.06193L17.0552 2.55363L19.1469 3.81292C19.5453 3.58525 19.9722 3.40739 20.4275 3.27933L21.018 0.910156H23.1524L23.7429 3.27933C24.1983 3.40739 24.6251 3.58525 25.0236 3.81292L27.1153 2.55363L28.6236 4.06193L27.3643 6.15363C27.5919 6.55205 27.7698 6.97893 27.8979 7.43427L30.267 8.02478V10.1592L27.8979 10.7497C27.7698 11.205 27.5919 11.6319 27.3643 12.0303L28.6236 14.122L27.6347 15.1109" stroke="white" stroke-miterlimit="10" stroke-linecap="round" stroke-linejoin="round"/>
<path d="M22.9951 11.6665C24.0543 11.2921 24.8132 10.2819 24.8132 9.09446C24.8132 7.58823 23.5922 6.36719 22.086 6.36719C20.9915 6.36719 20.0475 7.01192 19.6133 7.94232" stroke="white" stroke-miterlimit="10" stroke-linecap="round" stroke-linejoin="round"/>
</svg>
